<?xml version="1.0" encoding="utf-8"?>
<!-- Generator: Adobe Illustrator 19.1.0, SVG Export Plug-In . SVG Version: 6.00 Build 0)  -->
<svg version="1.1" id="Layer_1" xmlns="http://www.w3.org/2000/svg" xmlns:xlink="http://www.w3.org/1999/xlink" x="0px" y="0px"
	 viewBox="0 0 61.6 23.8" style="enable-background:new 0 0 61.6 23.8;" xml:space="preserve">
<style type="text/css">
	.st0{fill-rule:evenodd;clip-rule:evenodd;fill:#1A1A18;stroke:#1A1A18;stroke-width:0.1391;stroke-miterlimit:3.8637;}
	.st1{fill:#E2000F;}
	.st2{fill:none;stroke:#E2000F;stroke-width:0.244;stroke-miterlimit:2.9238;}
	.st3{fill:#FFEC00;}
	.st4{fill:#FFFFFF;}
	.st5{fill-rule:evenodd;clip-rule:evenodd;fill:#E2000F;}
	.st6{fill-rule:evenodd;clip-rule:evenodd;fill:#FFEC00;}
	.st7{fill-rule:evenodd;clip-rule:evenodd;fill:#FFFFFF;}
	.st8{fill:#E2000F;stroke:#E2000F;stroke-width:0.1138;stroke-miterlimit:2.9238;}
	.st9{fill:#FFEC00;stroke:#E2000F;stroke-width:0.1138;stroke-miterlimit:2.9238;}
	.st10{fill:#FFFFFF;stroke:#E2000F;stroke-width:0.1138;stroke-miterlimit:2.9238;}
	.st11{fill-rule:evenodd;clip-rule:evenodd;fill:#E2000F;stroke:#E2000F;stroke-width:0.1138;stroke-miterlimit:2.9238;}
	.st12{fill-rule:evenodd;clip-rule:evenodd;fill:#FFEC00;stroke:#E2000F;stroke-width:0.1138;stroke-miterlimit:2.9238;}
	.st13{fill-rule:evenodd;clip-rule:evenodd;fill:#FFFFFF;stroke:#E2000F;stroke-width:0.1138;stroke-miterlimit:2.9238;}
	.st14{fill:none;stroke:#E2000F;stroke-width:0.1138;stroke-miterlimit:2.9238;}
	.st15{fill:#1A1A18;}
</style>
<g>
	<g>
		<path class="st0" d="M45.9,11.6c0.5-0.4,1-1.1,1.2-2c0.2-1.1,0.1-1.8-0.2-2.8l0-5h-2.4c0,0-3.1-0.3-3.7,0.9l0-0.9h-1
			c0,0-4.9-0.4-6.2,2.7l-1.7-3.7l-1.5,3.1l-1.5-3l-2.2,4.3l-2.7-5l-2.8,5.1C21,3.7,19.8,1.9,17,1.9c-4.1,0-4.7,2.9-4.7,5.6
			c0,1.3,0.3,2.8,1.3,3.8l-13.5,0l4.7,10.5h5.7l1-2.2c1,1.5,2.7,2.6,4.7,2.6c1.1,0,2.1-0.3,3-0.9l0,0.6c4.3,0,16.1,0,16.1,0
			s0.7,0.1,0.9-0.4v0.4h8.4l0-0.6c0.9,0.6,2,1,3.1,1c1.1,0,2.2-0.4,3-1v2.5l5.1-2.2v-2.7c0.9-0.3,2.8-1.2,2.8-3.5c0-3.5-2.3-4-3.8-4
			h-4.1V12c-0.9-0.6-1.9-0.9-3-0.9C47.1,11.1,46.5,11.3,45.9,11.6L45.9,11.6z"/>
		<path class="st1" d="M51.4,22.5V12.1h2.7c0,0,3.6-0.4,3.6,3.2c0,2.5-2.7,2.9-2.7,2.9V21L51.4,22.5L51.4,22.5z"/>
		<path class="st2" d="M51.4,22.5V12.1h2.7c0,0,3.6-0.4,3.6,3.2c0,2.5-2.7,2.9-2.7,2.9V21L51.4,22.5L51.4,22.5z"/>
		<path class="st3" d="M52.3,13v8.3l1.8-0.7l0-3c0,0,2.7-0.1,2.7-2.2c0-2.2-1.9-2.3-1.9-2.3H52.3L52.3,13z"/>
		<path class="st2" d="M52.3,13v8.3l1.8-0.7l0-3c0,0,2.7-0.1,2.7-2.2c0-2.2-1.9-2.3-1.9-2.3H52.3L52.3,13z"/>
		<path class="st4" d="M51.4,22.5V12.1h2.7c0,0,1.2-0.1,1.2,0.4C55.3,13,55,13,55,13h-2.7v8.3L51.4,22.5L51.4,22.5z"/>
		<path class="st2" d="M51.4,22.5V12.1h2.7c0,0,1.2-0.1,1.2,0.4C55.3,13,55,13,55,13h-2.7v8.3L51.4,22.5L51.4,22.5z"/>
		<path class="st1" d="M54.1,14.6c0,0,0.9-0.2,0.9,0.6c0,0.8-0.9,0.6-0.9,0.6V14.6L54.1,14.6z"/>
		<path class="st2" d="M54.1,14.6c0,0,0.9-0.2,0.9,0.6c0,0.8-0.9,0.6-0.9,0.6V14.6L54.1,14.6z"/>
		<polygon class="st1" points="36.8,12.1 36.8,21 40.1,21 40.1,18.3 40.5,18.3 40.5,21 43.8,21 43.8,12.1 40.5,12.1 40.5,14.6 
			40.1,14.6 40.1,12.1 36.8,12.1 		"/>
		<polygon class="st2" points="36.8,12.1 36.8,21 40.1,21 40.1,18.3 40.5,18.3 40.5,21 43.8,21 43.8,12.1 40.5,12.1 40.5,14.6 
			40.1,14.6 40.1,12.1 36.8,12.1 		"/>
		<polygon class="st3" points="37.6,13 37.6,20.1 39.2,20.1 39.2,17.4 41.4,17.4 41.4,20.1 42.9,20.1 42.9,13 41.4,13 41.4,15.5 
			39.2,15.5 39.2,13 37.6,13 		"/>
		<polygon class="st2" points="37.6,13 37.6,20.1 39.2,20.1 39.2,17.4 41.4,17.4 41.4,20.1 42.9,20.1 42.9,13 41.4,13 41.4,15.5 
			39.2,15.5 39.2,13 37.6,13 		"/>
		<polygon class="st4" points="40.1,12.1 39.2,13 37.6,13 37.6,20.1 36.8,21 36.8,12.1 40.1,12.1 		"/>
		<polygon class="st2" points="40.1,12.1 39.2,13 37.6,13 37.6,20.1 36.8,21 36.8,12.1 40.1,12.1 		"/>
		<polygon class="st4" points="39.2,15.5 40.1,14.6 40.5,14.6 40.5,12.1 43.8,12.1 42.9,13 41.4,13 41.4,15.5 39.2,15.5 		"/>
		<polygon class="st2" points="39.2,15.5 40.1,14.6 40.5,14.6 40.5,12.1 43.8,12.1 42.9,13 41.4,13 41.4,15.5 39.2,15.5 		"/>
		<polygon class="st4" points="41.4,17.4 40.5,18.3 40.5,21 41.4,20.1 41.4,17.4 		"/>
		<polygon class="st2" points="41.4,17.4 40.5,18.3 40.5,21 41.4,20.1 41.4,17.4 		"/>
		<path class="st5" d="M30.9,21h3.6c0,0,3.1,0,3.1-3.2c0-1.1-0.4-1.8-0.9-2.3l0,0l1.4-3.4h-3.6c0,0-2.8,0-2.8,3.2
			c0,1,0.3,1.6,0.7,2.1h-1.5V21L30.9,21L30.9,21z"/>
		<path class="st2" d="M30.9,21h3.6c0,0,3.1,0,3.1-3.2c0-1.1-0.4-1.8-0.9-2.3l0,0l1.4-3.4h-3.6c0,0-2.8,0-2.8,3.2
			c0,1,0.3,1.6,0.7,2.1h-1.5V21L30.9,21L30.9,21z"/>
		<path class="st6" d="M35.4,15.5c-0.2,0-0.4-0.2-0.4-0.4c0-0.2,0.2-0.4,0.4-0.4h0.7l0.7-1.7h-2.3c0,0-1.9,0-1.9,2.3
			c0,1.6,0.9,2,1.5,2.1c0.2,0,0.4,0.2,0.4,0.4c0,0.2-0.2,0.4-0.4,0.4h-3.2l0.9,1.9h2.7c0,0,2.2,0,2.2-2.3c0-1.4-0.8-2-1.4-2.3
			L35.4,15.5L35.4,15.5z"/>
		<path class="st2" d="M35.4,15.5c-0.2,0-0.4-0.2-0.4-0.4c0-0.2,0.2-0.4,0.4-0.4h0.7l0.7-1.7h-2.3c0,0-1.9,0-1.9,2.3
			c0,1.6,0.9,2,1.5,2.1c0.2,0,0.4,0.2,0.4,0.4c0,0.2-0.2,0.4-0.4,0.4h-3.2l0.9,1.9h2.7c0,0,2.2,0,2.2-2.3c0-1.4-0.8-2-1.4-2.3
			L35.4,15.5L35.4,15.5z"/>
		<path class="st7" d="M30.9,18.3l0.9,1.9L30.9,21v-3.6l1.5,0c0.6,0.6,1.3,0.8,1.8,0.9L30.9,18.3L30.9,18.3z"/>
		<path class="st2" d="M30.9,18.3l0.9,1.9L30.9,21v-3.6l1.5,0c0.6,0.6,1.3,0.8,1.8,0.9L30.9,18.3L30.9,18.3z"/>
		<path class="st7" d="M32.9,16.6c-0.2-0.3-0.3-0.8-0.3-1.4c0-2.5,2.4-2.3,1.9-2.3c-0.4,0,2.3,0,2.3,0l1.3-0.9h-3.6
			c0,0-2.8,0-2.8,3.2c0,0.8,0.2,1.4,0.5,1.8c0.1,0.1,0.2,0.2,0.4,0.2c0.2,0,0.4-0.2,0.4-0.4C33,16.8,32.9,16.7,32.9,16.6L32.9,16.6z
			"/>
		<path class="st2" d="M32.9,16.6c-0.2-0.3-0.3-0.8-0.3-1.4c0-2.5,2.4-2.3,1.9-2.3c-0.4,0,2.3,0,2.3,0l1.3-0.9h-3.6
			c0,0-2.8,0-2.8,3.2c0,0.8,0.2,1.4,0.5,1.8c0.1,0.1,0.2,0.2,0.4,0.2c0.2,0,0.4-0.2,0.4-0.4C33,16.8,32.9,16.7,32.9,16.6L32.9,16.6z
			"/>
		<polygon class="st1" points="7.6,12.1 6.5,13.2 6.5,12.1 1.6,12.1 5.4,21 7.2,21 7.6,20.1 8,21 9.8,21 13.6,12.1 8.8,12.1 
			8.8,13.3 7.6,12.1 		"/>
		<path class="st2" d="M7.6,12.1l-1.1,1.1v-1.1H1.6L5.4,21h1.8l0.4-0.9L8,21h1.8l3.8-8.9H8.8v1.2L7.6,12.1L7.6,12.1z M2.9,13l3,7.1"
			/>
		<polygon class="st3" points="2.9,13 5.4,13 5.4,15.9 7.6,13.6 9.8,15.9 9.8,13 12.3,13 9.3,20.1 8.5,20.1 7.6,18.3 6.7,20.1 
			5.9,20.1 2.9,13 		"/>
		<polygon class="st2" points="2.9,13 5.4,13 5.4,15.9 7.6,13.6 9.8,15.9 9.8,13 12.3,13 9.3,20.1 8.5,20.1 7.6,18.3 6.7,20.1 
			5.9,20.1 2.9,13 		"/>
		<polygon class="st4" points="5.4,13 6.5,12.1 1.6,12.1 5.4,21 5.9,20.1 2.9,13 5.4,13 		"/>
		<polygon class="st2" points="5.4,13 6.5,12.1 1.6,12.1 5.4,21 5.9,20.1 2.9,13 5.4,13 		"/>
		<polygon class="st4" points="7.6,12.1 7.6,13.6 5.4,15.9 6.5,13.2 7.6,12.1 		"/>
		<polygon class="st2" points="7.6,12.1 7.6,13.6 5.4,15.9 6.5,13.2 7.6,12.1 		"/>
		<polygon class="st4" points="13.6,12.1 8.8,12.1 8.8,13.3 9.8,15.9 9.8,13 12.3,13 13.6,12.1 		"/>
		<polygon class="st2" points="13.6,12.1 8.8,12.1 8.8,13.3 9.8,15.9 9.8,13 12.3,13 13.6,12.1 		"/>
		<path class="st1" d="M20.8,6.5h-0.2c0,0-0.3-3.8-3.6-3.8c-3.4,0-3.7,2.7-3.7,4.7c0,1.9,0.8,4.2,3.7,4.2c2.9,0,3.8,0,3.8,0V6.5
			L20.8,6.5z"/>
		<path class="st2" d="M20.8,6.5h-0.2c0,0-0.3-3.8-3.6-3.8c-3.4,0-3.7,2.7-3.7,4.7c0,1.9,0.8,4.2,3.7,4.2c2.9,0,3.8,0,3.8,0V6.5
			L20.8,6.5z"/>
		<path class="st3" d="M19.9,10.8H17c0,0-2.8,0.4-2.8-3.4c0-3.8,1.9-3.8,2.8-3.8c1,0,2.7,1,2.7,2.9h-1.8c0,0,0-0.9-1-0.9
			c-1,0-0.8,0.9-0.8,0.9V8c0,0-0.2,0.9,0.8,0.9c1,0,1.3,0,1.3,0V8h-0.4V7.4h1.9V10.8L19.9,10.8z"/>
		<path class="st2" d="M19.9,10.8H17c0,0-2.8,0.4-2.8-3.4c0-3.8,1.9-3.8,2.8-3.8c1,0,2.7,1,2.7,2.9h-1.8c0,0,0-0.9-1-0.9
			c-1,0-0.8,0.9-0.8,0.9V8c0,0-0.2,0.9,0.8,0.9c1,0,1.3,0,1.3,0V8h-0.4V7.4h1.9V10.8L19.9,10.8z"/>
		<path class="st7" d="M19.9,7.4l0.7-0.9H17V8c0,0-0.1,0.9,1.3,0.9V8h-0.4V7.4H19.9L19.9,7.4L19.9,7.4z"/>
		<path class="st2" d="M19.9,7.4l0.7-0.9H17V8c0,0-0.1,0.9,1.3,0.9V8h-0.4V7.4H19.9L19.9,7.4L19.9,7.4z"/>
		<path class="st4" d="M14.8,9.8c0.1,0.2,0.1,0.5-0.1,0.6c-0.2,0.1-0.5,0.1-0.6-0.1c-0.6-0.8-0.8-1.9-0.8-2.9c0-1.9,0.4-4.7,3.7-4.7
			c0.5,0,1,0.1,1.3,0.3c0.2,0.1,0.3,0.4,0.2,0.6c-0.1,0.2-0.3,0.3-0.6,0.2c-0.4-0.2-0.7-0.2-1-0.2c-1,0-2.8,0-2.8,3.8
			C14.1,8.5,14.4,9.3,14.8,9.8L14.8,9.8z"/>
		<path class="st2" d="M14.8,9.8c0.1,0.2,0.1,0.5-0.1,0.6c-0.2,0.1-0.5,0.1-0.6-0.1c-0.6-0.8-0.8-1.9-0.8-2.9c0-1.9,0.4-4.7,3.7-4.7
			c0.5,0,1,0.1,1.3,0.3c0.2,0.1,0.3,0.4,0.2,0.6c-0.1,0.2-0.3,0.3-0.6,0.2c-0.4-0.2-0.7-0.2-1-0.2c-1,0-2.8,0-2.8,3.8
			C14.1,8.5,14.4,9.3,14.8,9.8L14.8,9.8z"/>
		<polygon class="st1" points="19.2,11.6 20.6,10.8 24,4 24,2.1 28.9,11.6 19.2,11.6 		"/>
		<polygon class="st2" points="19.2,11.6 20.6,10.8 24,4 24,2.1 28.9,11.6 19.2,11.6 		"/>
		<polygon class="st3" points="20.6,10.8 24,4 27.4,10.8 20.6,10.8 		"/>
		<polygon class="st2" points="20.6,10.8 24,4 27.4,10.8 20.6,10.8 		"/>
		<polygon class="st4" points="19.2,11.6 20.6,10.8 24,4 24,2.1 19.2,11.6 		"/>
		<polygon class="st2" points="19.2,11.6 20.6,10.8 24,4 24,2.1 19.2,11.6 		"/>
		<polygon class="st1" points="22.8,9.3 24,7 25.2,9.3 22.8,9.3 		"/>
		<polygon class="st2" points="22.8,9.3 24,7 25.2,9.3 22.8,9.3 		"/>
		<polygon class="st4" points="22.8,9.3 24,8.6 25.2,9.3 22.8,9.3 		"/>
		<polygon class="st2" points="22.8,9.3 24,8.6 25.2,9.3 22.8,9.3 		"/>
		<polygon class="st1" points="30.4,6 28.9,2.7 24.8,11.6 36,11.6 31.9,2.7 30.4,6 		"/>
		<polygon class="st2" points="30.4,6 28.9,2.7 24.8,11.6 36,11.6 31.9,2.7 30.4,6 		"/>
		<polygon class="st4" points="28.9,4.9 28.9,2.7 24.8,11.6 26.2,10.8 28.9,4.9 		"/>
		<polygon class="st2" points="28.9,4.9 28.9,2.7 24.8,11.6 26.2,10.8 28.9,4.9 		"/>
		<polygon class="st4" points="30.4,8.2 31.9,4.9 31.9,2.7 30.4,6 30.4,8.2 		"/>
		<polygon class="st2" points="30.4,8.2 31.9,4.9 31.9,2.7 30.4,6 30.4,8.2 		"/>
		<polygon class="st3" points="26.8,9.5 26.2,10.8 27.4,10.8 26.8,9.5 		"/>
		<polygon class="st2" points="26.8,9.5 26.2,10.8 27.4,10.8 26.8,9.5 		"/>
		<polygon class="st3" points="30.9,10.8 31.6,9.3 30.4,10 29.2,9.3 29.9,10.8 28.5,10.8 27.3,8.5 28.9,4.9 30.4,8.2 31.9,4.9 
			34.6,10.8 30.9,10.8 		"/>
		<polygon class="st2" points="30.9,10.8 31.6,9.3 30.4,10 29.2,9.3 29.9,10.8 28.5,10.8 27.3,8.5 28.9,4.9 30.4,8.2 31.9,4.9 
			34.6,10.8 30.9,10.8 		"/>
		<path class="st1" d="M39.1,2.7c0,0-5.3,0-5.3,4.4c0,4.9,5.3,4.5,5.3,4.5h0.9V2.7H39.1L39.1,2.7z"/>
		<path class="st2" d="M39.1,2.7c0,0-5.3,0-5.3,4.4c0,4.9,5.3,4.5,5.3,4.5h0.9V2.7H39.1L39.1,2.7z M39.1,10.8c-2.7,0-4.4-1-4.4-3.6"
			/>
		<path class="st4" d="M37.6,6.1h1.2c0.1,0,0.2,0.1,0.2,0.2v0c0,0.1-0.1,0.2-0.2,0.2h-1.2c-0.1,0-0.2-0.1-0.2-0.2v0
			C37.4,6.2,37.5,6.1,37.6,6.1L37.6,6.1z"/>
		<path class="st2" d="M37.6,6.1h1.2c0.1,0,0.2,0.1,0.2,0.2v0c0,0.1-0.1,0.2-0.2,0.2h-1.2c-0.1,0-0.2-0.1-0.2-0.2v0
			C37.4,6.2,37.5,6.1,37.6,6.1L37.6,6.1z"/>
		<path class="st4" d="M37.6,8.4h1.2c0.1,0,0.2,0.1,0.2,0.2v0c0,0.1-0.1,0.2-0.2,0.2h-1.2c-0.1,0-0.2-0.1-0.2-0.2v0
			C37.4,8.5,37.5,8.4,37.6,8.4L37.6,8.4z"/>
		<path class="st2" d="M37.6,8.4h1.2c0.1,0,0.2,0.1,0.2,0.2v0c0,0.1-0.1,0.2-0.2,0.2h-1.2c-0.1,0-0.2-0.1-0.2-0.2v0
			C37.4,8.5,37.5,8.4,37.6,8.4L37.6,8.4z"/>
		<path class="st6" d="M39.1,10.8V8.8h-1.6c-0.3,0-0.5-0.2-0.5-0.5c0-0.3,0.2-0.5,0.5-0.5h1.6V6.5h-1.6c-0.3,0-0.5-0.2-0.5-0.5
			c0-0.3,0.2-0.5,0.5-0.5h1.6V3.6c-2,0-4.4,0.9-4.4,3.5S36.3,10.8,39.1,10.8L39.1,10.8L39.1,10.8z"/>
		<path class="st2" d="M39.1,10.8V8.8h-1.6c-0.3,0-0.5-0.2-0.5-0.5c0-0.3,0.2-0.5,0.5-0.5h1.6V6.5h-1.6c-0.3,0-0.5-0.2-0.5-0.5
			c0-0.3,0.2-0.5,0.5-0.5h1.6V3.6c-2,0-4.4,0.9-4.4,3.5S36.3,10.8,39.1,10.8L39.1,10.8L39.1,10.8z"/>
		<path class="st7" d="M39.9,2.7h-0.9c0,0-5.3,0-5.3,4.4c0,1.6,0.5,2.6,1.3,3.3c0.1,0.1,0.2,0.2,0.4,0.2c0.2,0,0.4-0.2,0.4-0.4
			c0-0.1,0-0.2-0.1-0.3c-0.7-0.6-1.1-1.4-1.1-2.7c0-2.6,2.4-3.5,4.4-3.5L39.9,2.7L39.9,2.7z"/>
		<path class="st2" d="M39.9,2.7h-0.9c0,0-5.3,0-5.3,4.4c0,1.6,0.5,2.6,1.3,3.3c0.1,0.1,0.2,0.2,0.4,0.2c0.2,0,0.4-0.2,0.4-0.4
			c0-0.1,0-0.2-0.1-0.3c-0.7-0.6-1.1-1.4-1.1-2.7c0-2.6,2.4-3.5,4.4-3.5L39.9,2.7L39.9,2.7z"/>
		<path class="st5" d="M39.5,11.6h3.6c0,0,3.1,0,3.1-3.2c0-1.1-0.4-1.9-0.9-2.3H46V2.7h-2.9c0,0-2.8,0-2.8,3.2c0,1,0.3,1.6,0.7,2.1
			h-1.5V11.6L39.5,11.6L39.5,11.6z"/>
		<path class="st2" d="M39.5,11.6h3.6c0,0,3.1,0,3.1-3.2c0-1.1-0.4-1.9-0.9-2.3H46V2.7h-2.9c0,0-2.8,0-2.8,3.2c0,1,0.3,1.6,0.7,2.1
			h-1.5V11.6L39.5,11.6L39.5,11.6z"/>
		<path class="st6" d="M44,6.2c-0.2,0-0.4-0.2-0.4-0.4c0-0.2,0.2-0.4,0.4-0.4h1.3V3.6h-2.2c0,0-1.9,0-1.9,2.3c0,1.6,0.9,2,1.5,2.1
			c0.2,0,0.4,0.2,0.4,0.4c0,0.2-0.2,0.4-0.4,0.4h-2.3v1.9h2.7c0,0,2.2,0,2.2-2.3c0-1.4-0.8-2-1.4-2.3L44,6.2L44,6.2z"/>
		<path class="st2" d="M44,6.2c-0.2,0-0.4-0.2-0.4-0.4c0-0.2,0.2-0.4,0.4-0.4h1.3V3.6h-2.2c0,0-1.9,0-1.9,2.3c0,1.6,0.9,2,1.5,2.1
			c0.2,0,0.4,0.2,0.4,0.4c0,0.2-0.2,0.4-0.4,0.4h-2.3v1.9h2.7c0,0,2.2,0,2.2-2.3c0-1.4-0.8-2-1.4-2.3L44,6.2L44,6.2z"/>
		<path class="st4" d="M40.4,8.9v1.9l-0.9,0.9V8L41,8c0.6,0.6,1.3,0.8,1.8,0.9L40.4,8.9L40.4,8.9z"/>
		<path class="st2" d="M40.4,8.9v1.9l-0.9,0.9V8L41,8c0.6,0.6,1.3,0.8,1.8,0.9L40.4,8.9L40.4,8.9z M40.7,7.7C40.8,7.8,40.9,7.9,41,8
			"/>
		<path class="st7" d="M41.5,7.3c-0.2-0.3-0.3-0.8-0.3-1.4c0-2.5,2.4-2.3,1.9-2.3c-0.4,0,2.2,0,2.2,0L46,2.7h-2.9c0,0-2.8,0-2.8,3.2
			c0,0.8,0.2,1.4,0.5,1.8c0.1,0.1,0.2,0.2,0.4,0.2c0.2,0,0.4-0.2,0.4-0.4C41.6,7.4,41.5,7.3,41.5,7.3L41.5,7.3z"/>
		<path class="st2" d="M41.5,7.3c-0.2-0.3-0.3-0.8-0.3-1.4c0-2.5,2.4-2.3,1.9-2.3c-0.4,0,2.2,0,2.2,0L46,2.7h-2.9c0,0-2.8,0-2.8,3.2
			c0,0.8,0.2,1.4,0.5,1.8c0.1,0.1,0.2,0.2,0.4,0.2c0.2,0,0.4-0.2,0.4-0.4C41.6,7.4,41.5,7.3,41.5,7.3L41.5,7.3z"/>
		<path class="st5" d="M43,16.5c0-2.6,2.1-4.6,4.6-4.6c2.6,0,4.6,2.1,4.6,4.6c0,2.6-2.1,4.6-4.6,4.6C45.1,21.2,43,19.1,43,16.5
			L43,16.5z M46.8,16.5c0-0.5,0.4-0.9,0.9-0.9c0.5,0,0.9,0.4,0.9,0.9c0,0.5-0.4,0.9-0.9,0.9C47.2,17.4,46.8,17,46.8,16.5L46.8,16.5z
			"/>
		<path class="st2" d="M43,16.5c0-2.6,2.1-4.6,4.6-4.6c2.6,0,4.6,2.1,4.6,4.6c0,2.6-2.1,4.6-4.6,4.6C45.1,21.2,43,19.1,43,16.5
			L43,16.5z M46.8,16.5c0-0.5,0.4-0.9,0.9-0.9c0.5,0,0.9,0.4,0.9,0.9c0,0.5-0.4,0.9-0.9,0.9C47.2,17.4,46.8,17,46.8,16.5L46.8,16.5z
			"/>
		<path class="st6" d="M43.9,16.5c0-2.1,1.7-3.8,3.8-3.8c2.1,0,3.8,1.7,3.8,3.8c0,2.1-1.7,3.8-3.8,3.8
			C45.6,20.3,43.9,18.6,43.9,16.5L43.9,16.5z M45.9,16.5c0-1,0.8-1.8,1.8-1.8s1.8,0.8,1.8,1.8c0,1-0.8,1.8-1.8,1.8
			S45.9,17.5,45.9,16.5L45.9,16.5z"/>
		<path class="st2" d="M43.9,16.5c0-2.1,1.7-3.8,3.8-3.8c2.1,0,3.8,1.7,3.8,3.8c0,2.1-1.7,3.8-3.8,3.8
			C45.6,20.3,43.9,18.6,43.9,16.5L43.9,16.5z M45.9,16.5c0-1,0.8-1.8,1.8-1.8s1.8,0.8,1.8,1.8c0,1-0.8,1.8-1.8,1.8
			S45.9,17.5,45.9,16.5L45.9,16.5z"/>
		<path class="st7" d="M45.4,20.6c-2.2-1.3-3-4.1-1.7-6.3c1.3-2.2,4.1-3,6.3-1.7c0.2,0.1,0.3,0.4,0.2,0.6c-0.1,0.2-0.4,0.3-0.6,0.2
			c-1.8-1-4.1-0.4-5.1,1.4c-1,1.8-0.4,4.1,1.4,5.1c0.2,0.1,0.3,0.4,0.2,0.6C45.8,20.6,45.6,20.7,45.4,20.6L45.4,20.6L45.4,20.6z"/>
		<path class="st2" d="M45.4,20.6c-2.2-1.3-3-4.1-1.7-6.3c1.3-2.2,4.1-3,6.3-1.7c0.2,0.1,0.3,0.4,0.2,0.6c-0.1,0.2-0.4,0.3-0.6,0.2
			c-1.8-1-4.1-0.4-5.1,1.4c-1,1.8-0.4,4.1,1.4,5.1c0.2,0.1,0.3,0.4,0.2,0.6C45.8,20.6,45.6,20.7,45.4,20.6L45.4,20.6L45.4,20.6z"/>
		<path class="st4" d="M46.8,18c-0.2-0.1-0.3-0.4-0.2-0.6c0.1-0.2,0.4-0.2,0.6-0.1c0.4,0.2,1,0.1,1.2-0.3c0.2-0.4,0.1-0.9-0.3-1.2
			c-0.2-0.1-0.3-0.4-0.2-0.6c0.1-0.2,0.4-0.3,0.6-0.2c0.8,0.5,1.2,1.5,0.7,2.4C48.7,18.3,47.6,18.6,46.8,18L46.8,18L46.8,18z"/>
		<path class="st2" d="M46.8,18c-0.2-0.1-0.3-0.4-0.2-0.6c0.1-0.2,0.4-0.2,0.6-0.1c0.4,0.2,1,0.1,1.2-0.3c0.2-0.4,0.1-0.9-0.3-1.2
			c-0.2-0.1-0.3-0.4-0.2-0.6c0.1-0.2,0.4-0.3,0.6-0.2c0.8,0.5,1.2,1.5,0.7,2.4C48.7,18.3,47.6,18.6,46.8,18L46.8,18L46.8,18z"/>
		<polygon class="st1" points="25.7,12.1 25.7,21 32.6,21 30.4,16.5 32.6,12.1 25.7,12.1 		"/>
		<polygon class="st2" points="25.7,12.1 25.7,21 32.6,21 30.4,16.5 32.6,12.1 25.7,12.1 		"/>
		<polygon class="st3" points="31.3,13 29.4,16.4 31.2,20.1 28.8,20.1 28.8,17.4 27.9,17.4 27.9,20.1 26.6,20.1 26.6,13 27.9,13 
			27.9,15.5 28.8,15.5 28.8,13 31.3,13 		"/>
		<polygon class="st2" points="31.3,13 29.4,16.4 31.2,20.1 28.8,20.1 28.8,17.4 27.9,17.4 27.9,20.1 26.6,20.1 26.6,13 27.9,13 
			27.9,15.5 28.8,15.5 28.8,13 31.3,13 		"/>
		<polygon class="st4" points="28.4,12.1 27.9,13 26.6,13 26.6,20.1 25.7,21 25.7,12.1 28.4,12.1 		"/>
		<polygon class="st2" points="28.4,12.1 27.9,13 26.6,13 26.6,20.1 25.7,21 25.7,12.1 28.4,12.1 		"/>
		<polygon class="st4" points="32.6,12.1 31.3,13 28.8,13 28.8,15.5 28.4,15.5 28.4,12.1 32.6,12.1 		"/>
		<polygon class="st2" points="32.6,12.1 31.3,13 28.8,13 28.8,15.5 28.4,15.5 28.4,12.1 32.6,12.1 		"/>
		<polygon class="st4" points="28.8,17.4 28.4,17.8 28.4,20.6 28.8,20.1 28.8,17.4 		"/>
		<polygon class="st2" points="28.8,17.4 28.4,17.8 28.4,20.6 28.8,20.1 28.8,17.4 		"/>
		<path class="st5" d="M19.9,12.1V21h7.3l-2.1-3.6c0,0,1.5-0.6,1.5-2.1c0-1.5-1.1-3.2-3.4-3.2C20.8,12.1,19.9,12.1,19.9,12.1
			L19.9,12.1z M22.3,15.5v-0.9h0.9c0.2,0,0.4,0.2,0.4,0.4c0,0.2-0.2,0.4-0.4,0.4H22.3L22.3,15.5z"/>
		<path class="st2" d="M19.9,12.1V21h7.3l-2.1-3.6c0,0,1.5-0.6,1.5-2.1c0-1.5-1.1-3.2-3.4-3.2C20.8,12.1,19.9,12.1,19.9,12.1
			L19.9,12.1z M22.3,15.5v-0.9h0.9c0.2,0,0.4,0.2,0.4,0.4c0,0.2-0.2,0.4-0.4,0.4H22.3L22.3,15.5z"/>
		<path class="st4" d="M23.8,13C23.4,13,23.2,13,23.2,13h-2.4v7.2L19.9,21v-8.9c0,0,0.9,0,3.3,0c0.3,0,0.4,0,0.7,0
			c0.2,0,0.4,0.2,0.4,0.4c0,0.2-0.2,0.4-0.4,0.4L23.8,13L23.8,13z"/>
		<path class="st2" d="M23.8,13C23.4,13,23.2,13,23.2,13h-2.4v7.2L19.9,21v-8.9c0,0,0.9,0,3.3,0c0.3,0,0.4,0,0.7,0
			c0.2,0,0.4,0.2,0.4,0.4c0,0.2-0.2,0.4-0.4,0.4L23.8,13L23.8,13z"/>
		<polygon class="st4" points="23.2,17.4 22.7,17.8 22.7,20.6 23.2,20.1 23.2,17.4 		"/>
		<polygon class="st2" points="23.2,17.4 22.7,17.8 22.7,20.6 23.2,20.1 23.2,17.4 		"/>
		<path class="st3" d="M23.2,17.4h-0.9v2.7h-1.5V13h2.4c0,0,2.6-0.1,2.6,2.3c0,0.9-1.1,1.6-1.9,1.7l0,0l1.9,3.2h-2.6V17.4L23.2,17.4
			z"/>
		<path class="st2" d="M23.2,17.4h-0.9v2.7h-1.5V13h2.4c0,0,2.6-0.1,2.6,2.3c0,0.9-1.1,1.6-1.9,1.7l0,0l1.9,3.2h-2.6V17.4L23.2,17.4
			z"/>
		<path class="st1" d="M22.3,15.5v-0.9h0.9c0.2,0,0.4,0.2,0.4,0.4c0,0.2-0.2,0.4-0.4,0.4H22.3L22.3,15.5z"/>
		<path class="st2" d="M22.3,15.5v-0.9h0.9c0.2,0,0.4,0.2,0.4,0.4c0,0.2-0.2,0.4-0.4,0.4H22.3L22.3,15.5z"/>
		<path class="st5" d="M11.5,16.5c0-2.6,2.1-4.6,4.6-4.6c2.6,0,4.6,2.1,4.6,4.6c0,2.6-2.1,4.6-4.6,4.6
			C13.6,21.2,11.5,19.1,11.5,16.5L11.5,16.5z M15.2,16.5c0-0.5,0.4-0.9,0.9-0.9c0.5,0,0.9,0.4,0.9,0.9c0,0.5-0.4,0.9-0.9,0.9
			C15.6,17.4,15.2,17,15.2,16.5L15.2,16.5z"/>
		<path class="st2" d="M11.5,16.5c0-2.6,2.1-4.6,4.6-4.6c2.6,0,4.6,2.1,4.6,4.6c0,2.6-2.1,4.6-4.6,4.6
			C13.6,21.2,11.5,19.1,11.5,16.5L11.5,16.5z M15.2,16.5c0-0.5,0.4-0.9,0.9-0.9c0.5,0,0.9,0.4,0.9,0.9c0,0.5-0.4,0.9-0.9,0.9
			C15.6,17.4,15.2,17,15.2,16.5L15.2,16.5z"/>
		<path class="st6" d="M12.4,16.5c0-2.1,1.7-3.8,3.8-3.8c2.1,0,3.8,1.7,3.8,3.8c0,2.1-1.7,3.8-3.8,3.8
			C14.1,20.3,12.4,18.6,12.4,16.5L12.4,16.5z M14.4,16.5c0-1,0.8-1.8,1.8-1.8c1,0,1.8,0.8,1.8,1.8c0,1-0.8,1.8-1.8,1.8
			C15.2,18.3,14.4,17.5,14.4,16.5L14.4,16.5z"/>
		<path class="st2" d="M12.4,16.5c0-2.1,1.7-3.8,3.8-3.8c2.1,0,3.8,1.7,3.8,3.8c0,2.1-1.7,3.8-3.8,3.8
			C14.1,20.3,12.4,18.6,12.4,16.5L12.4,16.5z M14.4,16.5c0-1,0.8-1.8,1.8-1.8c1,0,1.8,0.8,1.8,1.8c0,1-0.8,1.8-1.8,1.8
			C15.2,18.3,14.4,17.5,14.4,16.5L14.4,16.5z"/>
		<path class="st7" d="M13.8,20.6c-2.2-1.3-3-4.1-1.7-6.3c1.3-2.2,4.1-3,6.3-1.7c0.2,0.1,0.3,0.4,0.2,0.6c-0.1,0.2-0.4,0.3-0.6,0.2
			c-1.8-1-4.1-0.4-5.1,1.4c-1,1.8-0.4,4.1,1.4,5.1c0.2,0.1,0.3,0.4,0.2,0.6C14.3,20.6,14,20.7,13.8,20.6L13.8,20.6L13.8,20.6z"/>
		<path class="st2" d="M13.8,20.6c-2.2-1.3-3-4.1-1.7-6.3c1.3-2.2,4.1-3,6.3-1.7c0.2,0.1,0.3,0.4,0.2,0.6c-0.1,0.2-0.4,0.3-0.6,0.2
			c-1.8-1-4.1-0.4-5.1,1.4c-1,1.8-0.4,4.1,1.4,5.1c0.2,0.1,0.3,0.4,0.2,0.6C14.3,20.6,14,20.7,13.8,20.6L13.8,20.6L13.8,20.6z"/>
		<path class="st4" d="M15.3,18c-0.2-0.1-0.3-0.4-0.2-0.6c0.1-0.2,0.4-0.2,0.6-0.1c0.4,0.2,1,0.1,1.2-0.3c0.2-0.4,0.1-0.9-0.3-1.2
			c-0.2-0.1-0.3-0.4-0.2-0.6c0.1-0.2,0.4-0.3,0.6-0.2c0.8,0.5,1.2,1.5,0.7,2.4C17.2,18.3,16.1,18.6,15.3,18L15.3,18L15.3,18z"/>
		<path class="st2" d="M15.3,18c-0.2-0.1-0.3-0.4-0.2-0.6c0.1-0.2,0.4-0.2,0.6-0.1c0.4,0.2,1,0.1,1.2-0.3c0.2-0.4,0.1-0.9-0.3-1.2
			c-0.2-0.1-0.3-0.4-0.2-0.6c0.1-0.2,0.4-0.3,0.6-0.2c0.8,0.5,1.2,1.5,0.7,2.4C17.2,18.3,16.1,18.6,15.3,18L15.3,18L15.3,18z"/>
		<path class="st8" d="M51.4,22.5V12.1h2.7c0,0,3.6-0.4,3.6,3.2c0,2.5-2.7,2.9-2.7,2.9V21L51.4,22.5L51.4,22.5z"/>
		<path class="st9" d="M52.3,13v8.3l1.8-0.7l0-3c0,0,2.7-0.1,2.7-2.2C56.8,13,55,13,55,13H52.3L52.3,13z"/>
		<path class="st10" d="M51.4,22.5V12.1h2.7c0,0,1.2-0.1,1.2,0.4C55.3,13,55,13,55,13h-2.7v8.3L51.4,22.5L51.4,22.5z"/>
		<path class="st8" d="M54.1,14.6c0,0,0.9-0.2,0.9,0.6c0,0.8-0.9,0.6-0.9,0.6V14.6L54.1,14.6z"/>
		<polygon class="st8" points="36.8,12.1 36.8,21 40.1,21 40.1,18.3 40.5,18.3 40.5,21 43.8,21 43.8,12.1 40.5,12.1 40.5,14.6 
			40.1,14.6 40.1,12.1 36.8,12.1 		"/>
		<polygon class="st9" points="37.6,13 37.6,20.1 39.2,20.1 39.2,17.4 41.4,17.4 41.4,20.1 42.9,20.1 42.9,13 41.4,13 41.4,15.5 
			39.2,15.5 39.2,13 37.6,13 		"/>
		<polygon class="st10" points="40.1,12.1 39.2,13 37.6,13 37.6,20.1 36.8,21 36.8,12.1 40.1,12.1 		"/>
		<polygon class="st10" points="39.2,15.5 40.1,14.6 40.5,14.6 40.5,12.1 43.8,12.1 42.9,13 41.4,13 41.4,15.5 39.2,15.5 		"/>
		<polygon class="st10" points="41.4,17.4 40.5,18.3 40.5,21 41.4,20.1 41.4,17.4 		"/>
		<path class="st11" d="M30.9,21h3.6c0,0,3.1,0,3.1-3.2c0-1.1-0.4-1.8-0.9-2.3l0,0l1.4-3.4h-3.6c0,0-2.8,0-2.8,3.2
			c0,1,0.3,1.7,0.7,2.1h-1.5V21L30.9,21L30.9,21z"/>
		<path class="st12" d="M35.4,15.5c-0.2,0-0.4-0.2-0.4-0.4c0-0.2,0.2-0.4,0.4-0.4h0.7l0.7-1.7h-2.3c0,0-1.9,0-1.9,2.3
			c0,1.6,0.9,2,1.5,2.1c0.2,0,0.4,0.2,0.4,0.4c0,0.2-0.2,0.4-0.4,0.4h-3.2l0.9,1.9h2.7c0,0,2.2,0,2.2-2.3c0-1.4-0.8-2-1.4-2.3
			L35.4,15.5L35.4,15.5z"/>
		<path class="st13" d="M30.9,18.3l0.9,1.9L30.9,21v-3.6l1.5,0c0.6,0.6,1.3,0.8,1.8,0.8L30.9,18.3L30.9,18.3z"/>
		<path class="st13" d="M32.9,16.6c-0.2-0.3-0.3-0.8-0.3-1.4c0-2.5,2.4-2.3,1.9-2.3c-0.4,0,2.3,0,2.3,0l1.3-0.9h-3.6
			c0,0-2.8,0-2.8,3.2c0,0.8,0.2,1.4,0.5,1.8c0.1,0.1,0.2,0.2,0.4,0.2c0.2,0,0.4-0.2,0.4-0.4C33,16.8,32.9,16.7,32.9,16.6L32.9,16.6z
			"/>
		<polygon class="st8" points="7.6,12.1 6.5,13.2 6.5,12.1 1.6,12.1 5.4,21 7.2,21 7.6,20.1 8,21 9.8,21 13.6,12.1 8.8,12.1 
			8.8,13.3 7.6,12.1 		"/>
		<line class="st14" x1="2.9" y1="13" x2="5.9" y2="20"/>
		<polygon class="st9" points="2.9,13 5.4,13 5.4,15.9 7.6,13.6 9.8,15.9 9.8,13 12.3,13 9.3,20.1 8.5,20.1 7.6,18.3 6.7,20.1 
			5.9,20.1 2.9,13 		"/>
		<polygon class="st10" points="5.4,13 6.5,12.1 1.6,12.1 5.4,21 5.9,20.1 2.9,13 5.4,13 		"/>
		<polygon class="st10" points="7.6,12.1 7.6,13.6 5.4,15.9 6.5,13.2 7.6,12.1 		"/>
		<polygon class="st10" points="13.6,12.1 8.8,12.1 8.8,13.3 9.8,15.9 9.8,13 12.3,13 13.6,12.1 		"/>
		<path class="st8" d="M20.8,6.5h-0.2c0,0-0.3-3.8-3.6-3.8c-3.4,0-3.7,2.7-3.7,4.7c0,1.9,0.8,4.2,3.7,4.2c2.9,0,3.8,0,3.8,0V6.5
			L20.8,6.5z"/>
		<path class="st9" d="M19.9,10.7H17c0,0-2.8,0.4-2.8-3.4c0-3.8,1.9-3.8,2.8-3.8c1,0,2.7,1,2.7,2.9h-1.8c0,0,0-0.9-1-0.9
			c-1,0-0.8,0.9-0.8,0.9V8c0,0-0.2,0.9,0.8,0.9c1,0,1.3,0,1.3,0V8h-0.4V7.4h1.9V10.7L19.9,10.7z"/>
		<path class="st13" d="M19.9,7.4l0.7-0.9H17V8c0,0-0.1,0.9,1.3,0.9V8h-0.4V7.4H19.9L19.9,7.4L19.9,7.4z"/>
		<path class="st10" d="M14.8,9.8c0.1,0.2,0.1,0.5-0.1,0.6c-0.2,0.1-0.5,0.1-0.6-0.1c-0.6-0.8-0.8-1.9-0.8-2.9
			c0-1.9,0.4-4.7,3.7-4.7c0.5,0,1,0.1,1.3,0.3c0.2,0.1,0.3,0.4,0.2,0.6c-0.1,0.2-0.3,0.3-0.6,0.2c-0.4-0.2-0.7-0.2-1-0.2
			c-1,0-2.8,0-2.8,3.8C14.1,8.5,14.4,9.3,14.8,9.8L14.8,9.8z"/>
		<polygon class="st8" points="19.2,11.6 20.6,10.7 24,3.9 24,2.1 28.9,11.6 19.2,11.6 		"/>
		<polygon class="st9" points="20.6,10.7 24,3.9 27.4,10.7 20.6,10.7 		"/>
		<polygon class="st10" points="19.2,11.6 20.6,10.7 24,3.9 24,2.1 19.2,11.6 		"/>
		<polygon class="st8" points="22.8,9.3 24,7 25.2,9.3 22.8,9.3 		"/>
		<polygon class="st10" points="22.8,9.3 24,8.6 25.2,9.3 22.8,9.3 		"/>
		<polygon class="st8" points="30.4,6 28.9,2.7 24.8,11.6 36,11.6 31.9,2.7 30.4,6 		"/>
		<polygon class="st10" points="28.9,4.9 28.9,2.7 24.8,11.6 26.2,10.7 28.9,4.9 		"/>
		<polygon class="st10" points="30.4,8.2 31.9,4.9 31.9,2.7 30.4,6 30.4,8.2 		"/>
		<polygon class="st9" points="26.8,9.5 26.2,10.7 27.4,10.7 26.8,9.5 		"/>
		<polygon class="st9" points="30.9,10.7 31.6,9.3 30.4,10 29.2,9.3 29.9,10.7 28.5,10.7 27.3,8.5 28.9,4.9 30.4,8.2 31.9,4.9 
			34.6,10.7 30.9,10.7 		"/>
		<path class="st8" d="M39.1,2.7c0,0-5.3,0-5.3,4.4c0,4.9,5.3,4.5,5.3,4.5h0.9V2.7H39.1L39.1,2.7z"/>
		<path class="st14" d="M39.1,10.7c-2.7,0-4.4-1-4.4-3.6"/>
		<path class="st10" d="M37.6,6.1h1.2c0.1,0,0.2,0.1,0.2,0.2l0,0c0,0.1-0.1,0.2-0.2,0.2h-1.2c-0.1,0-0.2-0.1-0.2-0.2l0,0
			C37.4,6.2,37.5,6.1,37.6,6.1L37.6,6.1z"/>
		<path class="st10" d="M37.6,8.4h1.2c0.1,0,0.2,0.1,0.2,0.2l0,0c0,0.1-0.1,0.2-0.2,0.2h-1.2c-0.1,0-0.2-0.1-0.2-0.2l0,0
			C37.4,8.5,37.5,8.4,37.6,8.4L37.6,8.4z"/>
		<path class="st12" d="M39.1,10.7V8.8h-1.6c-0.3,0-0.5-0.2-0.5-0.5c0-0.3,0.2-0.5,0.5-0.5h1.6V6.5h-1.6c-0.3,0-0.5-0.2-0.5-0.5
			c0-0.3,0.2-0.5,0.5-0.5h1.6V3.6c-2,0-4.4,0.9-4.4,3.5C34.6,9.8,36.3,10.7,39.1,10.7L39.1,10.7L39.1,10.7z"/>
		<path class="st13" d="M39.9,2.7h-0.9c0,0-5.3,0-5.3,4.4c0,1.6,0.5,2.6,1.3,3.3c0.1,0.1,0.2,0.2,0.4,0.2c0.2,0,0.4-0.2,0.4-0.4
			c0-0.1,0-0.2-0.1-0.3c-0.7-0.6-1.1-1.4-1.1-2.7c0-2.6,2.4-3.5,4.4-3.5L39.9,2.7L39.9,2.7z"/>
		<path class="st11" d="M39.5,11.6h3.6c0,0,3.1,0,3.1-3.2c0-1.1-0.4-1.8-0.9-2.3H46V2.7h-2.9c0,0-2.8,0-2.8,3.2c0,1,0.3,1.7,0.7,2.1
			h-1.5V11.6L39.5,11.6L39.5,11.6z"/>
		<path class="st12" d="M44,6.2c-0.2,0-0.4-0.2-0.4-0.4c0-0.2,0.2-0.4,0.4-0.4h1.3V3.6h-2.2c0,0-1.9,0-1.9,2.3c0,1.6,0.9,2,1.5,2.1
			c0.2,0,0.4,0.2,0.4,0.4s-0.2,0.4-0.4,0.4h-2.3v1.9h2.7c0,0,2.2,0,2.2-2.3c0-1.4-0.8-2-1.4-2.3L44,6.2L44,6.2z"/>
		<path class="st10" d="M40.4,8.9v1.9l-0.9,0.9V8L41,8c0.6,0.6,1.3,0.8,1.8,0.9L40.4,8.9L40.4,8.9z"/>
		<path class="st14" d="M40.7,7.7C40.8,7.8,40.9,7.9,41,8"/>
		<path class="st13" d="M41.5,7.3c-0.2-0.3-0.3-0.8-0.3-1.4c0-2.5,2.4-2.3,1.9-2.3c-0.4,0,2.2,0,2.2,0L46,2.7h-2.9
			c0,0-2.8,0-2.8,3.2c0,0.8,0.2,1.4,0.5,1.8c0.1,0.1,0.2,0.2,0.4,0.2c0.2,0,0.4-0.2,0.4-0.4C41.6,7.4,41.5,7.3,41.5,7.3L41.5,7.3z"
			/>
		<path class="st5" d="M43,16.5c0-2.6,2.1-4.6,4.6-4.6c2.6,0,4.6,2.1,4.6,4.6c0,2.6-2.1,4.6-4.6,4.6C45.1,21.2,43,19.1,43,16.5
			L43,16.5z M46.8,16.5c0-0.5,0.4-0.9,0.9-0.9c0.5,0,0.9,0.4,0.9,0.9c0,0.5-0.4,0.9-0.9,0.9C47.2,17.4,46.8,17,46.8,16.5L46.8,16.5z
			"/>
		<path class="st14" d="M43,16.5c0-2.6,2.1-4.6,4.6-4.6c2.6,0,4.6,2.1,4.6,4.6c0,2.6-2.1,4.6-4.6,4.6C45.1,21.2,43,19.1,43,16.5
			L43,16.5z M46.8,16.5c0-0.5,0.4-0.9,0.9-0.9c0.5,0,0.9,0.4,0.9,0.9c0,0.5-0.4,0.9-0.9,0.9C47.2,17.4,46.8,17,46.8,16.5L46.8,16.5z
			"/>
		<path class="st6" d="M43.9,16.5c0-2.1,1.7-3.8,3.8-3.8c2.1,0,3.8,1.7,3.8,3.8c0,2.1-1.7,3.8-3.8,3.8
			C45.6,20.3,43.9,18.6,43.9,16.5L43.9,16.5z M45.9,16.5c0-1,0.8-1.8,1.8-1.8s1.8,0.8,1.8,1.8c0,1-0.8,1.8-1.8,1.8
			S45.9,17.5,45.9,16.5L45.9,16.5z"/>
		<path class="st14" d="M43.9,16.5c0-2.1,1.7-3.8,3.8-3.8c2.1,0,3.8,1.7,3.8,3.8c0,2.1-1.7,3.8-3.8,3.8
			C45.6,20.3,43.9,18.6,43.9,16.5L43.9,16.5z M45.9,16.5c0-1,0.8-1.8,1.8-1.8s1.8,0.8,1.8,1.8c0,1-0.8,1.8-1.8,1.8
			S45.9,17.5,45.9,16.5L45.9,16.5z"/>
		<path class="st13" d="M45.4,20.5c-2.2-1.3-3-4.1-1.7-6.3c1.3-2.2,4.1-3,6.3-1.7c0.2,0.1,0.3,0.4,0.2,0.6c-0.1,0.2-0.4,0.3-0.6,0.2
			c-1.8-1-4.1-0.4-5.1,1.4c-1,1.8-0.4,4.1,1.4,5.1c0.2,0.1,0.3,0.4,0.2,0.6C45.8,20.6,45.6,20.7,45.4,20.5L45.4,20.5L45.4,20.5z"/>
		<path class="st10" d="M46.8,18c-0.2-0.1-0.3-0.4-0.2-0.6c0.1-0.2,0.4-0.2,0.6-0.1c0.4,0.2,1,0.1,1.2-0.3c0.2-0.4,0.1-0.9-0.3-1.2
			c-0.2-0.1-0.3-0.4-0.2-0.6c0.1-0.2,0.4-0.3,0.6-0.2c0.8,0.5,1.2,1.5,0.7,2.4S47.6,18.6,46.8,18L46.8,18L46.8,18z"/>
		<polygon class="st8" points="25.7,12.1 25.7,21 32.6,21 30.4,16.5 32.6,12.1 25.7,12.1 		"/>
		<polygon class="st9" points="31.3,13 29.4,16.4 31.2,20.1 28.8,20.1 28.8,17.4 27.9,17.4 27.9,20.1 26.6,20.1 26.6,13 27.9,13 
			27.9,15.5 28.8,15.5 28.8,13 31.3,13 		"/>
		<polygon class="st10" points="28.4,12.1 27.9,13 26.6,13 26.6,20.1 25.7,21 25.7,12.1 28.4,12.1 		"/>
		<polygon class="st10" points="32.6,12.1 31.3,13 28.8,13 28.8,15.5 28.4,15.5 28.4,12.1 32.6,12.1 		"/>
		<polygon class="st10" points="28.8,17.4 28.4,17.8 28.4,20.6 28.8,20.1 28.8,17.4 		"/>
		<path class="st5" d="M19.9,12.1V21h7.3l-2.1-3.6c0,0,1.5-0.6,1.5-2.1c0-1.5-1.1-3.2-3.4-3.2C20.8,12.1,19.9,12.1,19.9,12.1
			L19.9,12.1z M22.3,15.5v-0.9h0.9c0.2,0,0.4,0.2,0.4,0.4c0,0.2-0.2,0.4-0.4,0.4H22.3L22.3,15.5z"/>
		<path class="st14" d="M19.9,12.1V21h7.3l-2.1-3.6c0,0,1.5-0.6,1.5-2.1c0-1.5-1.1-3.2-3.4-3.2C20.8,12.1,19.9,12.1,19.9,12.1
			L19.9,12.1z M22.3,15.5v-0.9h0.9c0.2,0,0.4,0.2,0.4,0.4c0,0.2-0.2,0.4-0.4,0.4H22.3L22.3,15.5z"/>
		<path class="st10" d="M23.8,13c-0.3-0.1-0.6-0.1-0.6-0.1h-2.4v7.2L19.9,21v-8.9c0,0,0.9,0,3.3,0c0.3,0,0.4,0,0.7,0
			c0.2,0,0.4,0.2,0.4,0.4c0,0.2-0.2,0.4-0.4,0.4L23.8,13L23.8,13z"/>
		<polygon class="st10" points="23.2,17.4 22.7,17.8 22.7,20.6 23.2,20.1 23.2,17.4 		"/>
		<path class="st9" d="M23.2,17.4h-0.9v2.7h-1.5V13h2.4c0,0,2.6-0.1,2.6,2.3c0,0.9-1.1,1.6-1.9,1.7l0,0l1.9,3.2h-2.6V17.4L23.2,17.4
			z"/>
		<path class="st8" d="M22.3,15.5v-0.9h0.9c0.2,0,0.4,0.2,0.4,0.4c0,0.2-0.2,0.4-0.4,0.4H22.3L22.3,15.5z"/>
		<path class="st5" d="M11.5,16.5c0-2.6,2.1-4.6,4.6-4.6c2.6,0,4.6,2.1,4.6,4.6c0,2.6-2.1,4.6-4.6,4.6
			C13.6,21.2,11.5,19.1,11.5,16.5L11.5,16.5z M15.2,16.5c0-0.5,0.4-0.9,0.9-0.9c0.5,0,0.9,0.4,0.9,0.9c0,0.5-0.4,0.9-0.9,0.9
			C15.6,17.4,15.2,17,15.2,16.5L15.2,16.5z"/>
		<path class="st14" d="M11.5,16.5c0-2.6,2.1-4.6,4.6-4.6c2.6,0,4.6,2.1,4.6,4.6c0,2.6-2.1,4.6-4.6,4.6
			C13.6,21.2,11.5,19.1,11.5,16.5L11.5,16.5z M15.2,16.5c0-0.5,0.4-0.9,0.9-0.9c0.5,0,0.9,0.4,0.9,0.9c0,0.5-0.4,0.9-0.9,0.9
			C15.6,17.4,15.2,17,15.2,16.5L15.2,16.5z"/>
		<path class="st6" d="M12.4,16.5c0-2.1,1.7-3.8,3.8-3.8c2.1,0,3.8,1.7,3.8,3.8c0,2.1-1.7,3.8-3.8,3.8
			C14.1,20.3,12.4,18.6,12.4,16.5L12.4,16.5z M14.4,16.5c0-1,0.8-1.8,1.8-1.8c1,0,1.8,0.8,1.8,1.8c0,1-0.8,1.8-1.8,1.8
			C15.2,18.3,14.4,17.5,14.4,16.5L14.4,16.5z"/>
		<path class="st14" d="M12.4,16.5c0-2.1,1.7-3.8,3.8-3.8c2.1,0,3.8,1.7,3.8,3.8c0,2.1-1.7,3.8-3.8,3.8
			C14.1,20.3,12.4,18.6,12.4,16.5L12.4,16.5z M14.4,16.5c0-1,0.8-1.8,1.8-1.8c1,0,1.8,0.8,1.8,1.8c0,1-0.8,1.8-1.8,1.8
			C15.2,18.3,14.4,17.5,14.4,16.5L14.4,16.5z"/>
		<path class="st13" d="M13.8,20.5c-2.2-1.3-3-4.1-1.7-6.3c1.3-2.2,4.1-3,6.3-1.7c0.2,0.1,0.3,0.4,0.2,0.6c-0.1,0.2-0.4,0.3-0.6,0.2
			c-1.8-1-4.1-0.4-5.1,1.4c-1,1.8-0.4,4.1,1.4,5.1c0.2,0.1,0.3,0.4,0.2,0.6C14.3,20.6,14,20.7,13.8,20.5L13.8,20.5L13.8,20.5z"/>
		<path class="st10" d="M15.3,18c-0.2-0.1-0.3-0.4-0.2-0.6c0.1-0.2,0.4-0.2,0.6-0.1c0.4,0.2,1,0.1,1.2-0.3c0.2-0.4,0.1-0.9-0.3-1.2
			c-0.2-0.1-0.3-0.4-0.2-0.6c0.1-0.2,0.4-0.3,0.6-0.2c0.8,0.5,1.2,1.5,0.7,2.4C17.2,18.3,16.1,18.6,15.3,18L15.3,18L15.3,18z"/>
		<polygon class="st1" points="13.5,12.1 13.1,12.1 13.1,12.4 13.3,12.4 13.5,12.1 		"/>
		<polygon class="st1" points="7.5,12.2 7.4,12.3 7.6,12.4 7.7,12.3 7.5,12.2 		"/>
		<polygon class="st1" points="6.3,12.1 5.9,12.1 5.9,12.4 6.4,12.1 6.3,12.1 		"/>
		<polygon class="st1" points="25.3,17 24.7,17.8 25.7,18.1 25.3,17 		"/>
		<polygon class="st4" points="25.6,17.2 25.3,17.3 25.6,18 25.6,17.2 		"/>
	</g>
	<path class="st15" d="M57.9,13.1c0-1,0.8-1.8,1.8-1.8c1,0,1.8,0.8,1.8,1.8c0,1-0.8,1.8-1.8,1.8C58.7,14.9,57.9,14.1,57.9,13.1
		L57.9,13.1z"/>
	<g>
		<path class="st4" d="M59.8,14.6c-0.8,0-1.5-0.5-1.5-1.5s0.7-1.5,1.5-1.5c0.8,0,1.5,0.5,1.5,1.5S60.5,14.6,59.8,14.6z M59.8,12
			c-0.6,0-1.1,0.5-1.1,1.1c0,0.7,0.5,1.1,1.1,1.1v0c0.6,0,1-0.5,1-1.1C60.8,12.4,60.3,12,59.8,12z M59.5,13.9h-0.3v-1.6h0.6
			c0.4,0,0.6,0.1,0.6,0.5c0,0.3-0.2,0.4-0.4,0.4l0.4,0.7H60l-0.4-0.7h-0.2V13.9z M59.8,13c0.2,0,0.2,0,0.2-0.2
			c0-0.2-0.2-0.2-0.3-0.2h-0.2V13H59.8z"/>
	</g>
</g>
</svg>
