<?xml version="1.0" encoding="utf-8"?>
<!-- Generator: Adobe Illustrator 17.0.0, SVG Export Plug-In . SVG Version: 6.00 Build 0)  -->
<!DOCTYPE svg PUBLIC "-//W3C//DTD SVG 1.1//EN" "http://www.w3.org/Graphics/SVG/1.1/DTD/svg11.dtd">
<svg version="1.1" id="Capa_1" xmlns="http://www.w3.org/2000/svg" xmlns:xlink="http://www.w3.org/1999/xlink" x="0px" y="0px"
	 width="205px" height="75px" viewBox="0 0 205 75" enable-background="new 0 0 205 75" xml:space="preserve">
<g>
	<g>
		<path fill="#B72245" d="M14.569,62.142c-0.245,0-0.52,0.007-0.83,0.02c-0.308,0.012-0.578,0.019-0.81,0.019
			c-0.077,0-0.19-0.039-0.338-0.116c-0.148-0.077-0.222-0.231-0.222-0.463c0-0.18,0.065-0.312,0.194-0.395
			c0.128-0.083,0.282-0.139,0.463-0.164l0.983-0.097c0.257-0.026,0.411-0.086,0.463-0.183c0.051-0.095,0.077-0.253,0.077-0.472
			c0-0.27,0.003-0.562,0.009-0.877s0.042-0.601,0.106-0.858c0.065-0.257,0.167-0.411,0.309-0.463
			c0.141-0.051,0.243-0.078,0.308-0.078c0.167,0,0.315,0.042,0.444,0.126c0.128,0.083,0.192,0.317,0.192,0.703v2.063
			c0.09,0,0.264-0.003,0.52-0.009c0.257-0.007,0.53-0.016,0.819-0.03c0.29-0.012,0.557-0.022,0.8-0.028
			c0.245-0.007,0.405-0.011,0.483-0.011c0.153,0,0.308,0.043,0.463,0.126c0.155,0.083,0.231,0.227,0.231,0.433
			c0,0.18-0.058,0.312-0.173,0.395c-0.116,0.083-0.231,0.139-0.347,0.164c-0.463,0.051-0.935,0.083-1.417,0.097
			c-0.481,0.012-0.941,0.032-1.378,0.058v4.896c0,0.206,0.013,0.424,0.039,0.655c0.026,0.231,0.074,0.448,0.144,0.647
			c0.071,0.199,0.173,0.363,0.309,0.491c0.134,0.129,0.317,0.194,0.549,0.194c0.206,0,0.372-0.036,0.502-0.106
			c0.128-0.071,0.238-0.157,0.328-0.261c0.089-0.102,0.16-0.212,0.211-0.328c0.051-0.116,0.097-0.225,0.136-0.327
			c0.038-0.104,0.074-0.206,0.106-0.309c0.031-0.102,0.073-0.195,0.125-0.28c0.051-0.083,0.122-0.151,0.211-0.202
			c0.09-0.051,0.212-0.077,0.367-0.077c0.102,0,0.186,0.026,0.25,0.077s0.113,0.109,0.145,0.173
			c0.031,0.065,0.054,0.129,0.067,0.192c0.012,0.065,0.019,0.11,0.019,0.136c0,0.18-0.051,0.411-0.153,0.694
			c-0.104,0.282-0.268,0.555-0.492,0.819c-0.225,0.264-0.511,0.488-0.858,0.675c-0.347,0.186-0.758,0.28-1.233,0.28
			c-0.733,0-1.273-0.264-1.62-0.791c-0.128-0.192-0.227-0.402-0.299-0.627c-0.071-0.225-0.125-0.456-0.164-0.694
			c-0.038-0.238-0.061-0.465-0.067-0.684c-0.007-0.218-0.009-0.417-0.009-0.597L14.569,62.142z"/>
		<path fill="#B72245" d="M28.062,63.396c0-0.527-0.173-0.791-0.52-0.791h-1.464c-0.437,0-0.656-0.116-0.656-0.347
			c0-0.243,0.203-0.414,0.608-0.511c0.405-0.095,1.069-0.144,1.994-0.144c0.284,0,0.515,0.007,0.695,0.019
			c0.179,0.013,0.32,0.048,0.424,0.106c0.102,0.058,0.176,0.151,0.222,0.28c0.044,0.129,0.067,0.308,0.067,0.539
			c0,0.143-0.003,0.309-0.009,0.502c-0.007,0.192-0.013,0.456-0.019,0.791c-0.007,0.333-0.013,0.749-0.02,1.243
			c-0.007,0.496-0.009,1.109-0.009,1.842c0,0.643,0.003,1.099,0.009,1.368c0.007,0.27,0.009,0.432,0.009,0.483
			c0,0.141,0.036,0.247,0.106,0.317c0.071,0.071,0.215,0.106,0.434,0.106c0.051,0,0.112-0.003,0.183-0.009
			c0.07-0.007,0.208-0.009,0.414-0.009c0.463,0,0.694,0.155,0.694,0.463c0,0.129-0.044,0.238-0.134,0.328
			c-0.09,0.089-0.245,0.164-0.463,0.222c-0.219,0.058-0.508,0.098-0.867,0.125c-0.36,0.026-0.81,0.038-1.35,0.038
			c-0.141,0-0.238-0.141-0.289-0.424c-0.051-0.282-0.083-0.803-0.097-1.561c-0.089,0.206-0.218,0.424-0.385,0.655
			c-0.168,0.231-0.377,0.444-0.627,0.636c-0.251,0.194-0.55,0.351-0.897,0.473c-0.347,0.121-0.745,0.183-1.195,0.183
			c-0.604,0-1.105-0.113-1.503-0.338c-0.398-0.225-0.722-0.523-0.974-0.897c-0.25-0.372-0.428-0.8-0.53-1.282
			c-0.104-0.483-0.155-0.974-0.155-1.475v-3.758c0-0.296-0.028-0.492-0.086-0.589c-0.058-0.095-0.235-0.144-0.53-0.144H20.12
			c-0.194,0-0.374-0.026-0.541-0.077c-0.167-0.052-0.25-0.168-0.25-0.348c0-0.204,0.234-0.352,0.703-0.442s1.109-0.136,1.919-0.136
			c0.257,0,0.465,0.007,0.627,0.02c0.16,0.012,0.285,0.048,0.375,0.106c0.09,0.058,0.151,0.144,0.183,0.26
			c0.032,0.116,0.048,0.277,0.048,0.483c0,0.167-0.003,0.391-0.009,0.674c-0.007,0.284-0.016,0.592-0.03,0.925
			c-0.012,0.335-0.022,0.672-0.028,1.013c-0.007,0.34-0.009,0.652-0.009,0.935c0,0.411,0.009,0.846,0.028,1.302
			c0.02,0.456,0.094,0.877,0.222,1.263c0.129,0.386,0.331,0.707,0.608,0.964c0.276,0.257,0.671,0.386,1.185,0.386
			c0.386,0,0.749-0.074,1.089-0.222c0.342-0.148,0.643-0.347,0.906-0.598c0.264-0.25,0.472-0.537,0.627-0.858
			c0.155-0.32,0.231-0.662,0.231-1.021L28.062,63.396z"/>
		<path fill="#B72245" d="M44.853,65.44c0,0.784-0.141,1.471-0.424,2.063c-0.284,0.59-0.647,1.082-1.089,1.474
			c-0.444,0.393-0.943,0.684-1.494,0.878c-0.553,0.192-1.1,0.289-1.639,0.289c-0.655,0-1.253-0.113-1.793-0.338
			c-0.541-0.225-1.006-0.543-1.398-0.955c-0.391-0.411-0.697-0.902-0.916-1.475c-0.218-0.572-0.327-1.198-0.327-1.879
			c0-0.668,0.109-1.288,0.327-1.861c0.219-0.572,0.531-1.062,0.936-1.474c0.405-0.411,0.893-0.736,1.464-0.974
			s1.218-0.358,1.938-0.358s1.353,0.126,1.899,0.377c0.546,0.25,1.006,0.588,1.378,1.013c0.372,0.424,0.656,0.912,0.849,1.464
			C44.757,64.237,44.853,64.822,44.853,65.44z M40.42,61.989c-0.425,0-0.83,0.077-1.214,0.231c-0.386,0.153-0.727,0.379-1.022,0.674
			c-0.296,0.296-0.53,0.663-0.705,1.1c-0.173,0.437-0.26,0.932-0.26,1.483c0,0.592,0.093,1.105,0.28,1.542
			c0.186,0.437,0.426,0.8,0.722,1.089c0.296,0.289,0.624,0.504,0.984,0.647c0.359,0.141,0.706,0.211,1.041,0.211
			c0.333,0,0.687-0.07,1.06-0.211c0.372-0.143,0.719-0.358,1.041-0.647c0.321-0.289,0.585-0.658,0.791-1.108
			c0.206-0.45,0.308-0.983,0.308-1.6c0-0.502-0.074-0.96-0.221-1.378c-0.148-0.417-0.354-0.777-0.617-1.08
			c-0.264-0.301-0.582-0.537-0.955-0.703S40.869,61.989,40.42,61.989z"/>
		<path fill="#B72245" d="M52.777,61.68c-0.012-0.141-0.022-0.308-0.028-0.502c-0.007-0.192-0.009-0.378-0.009-0.558
			c0-0.141,0.044-0.268,0.134-0.377s0.243-0.164,0.463-0.164c0.218,0,0.379,0.058,0.481,0.173c0.104,0.116,0.155,0.27,0.155,0.463
			c0,0.18,0,0.418,0,0.714s-0.003,0.601-0.009,0.916c-0.007,0.315-0.009,0.62-0.009,0.916s0,0.527,0,0.694
			c0,0.102-0.067,0.199-0.203,0.289c-0.134,0.09-0.299,0.134-0.491,0.134c-0.104,0-0.215-0.032-0.338-0.095
			c-0.122-0.065-0.183-0.168-0.183-0.309c0-0.668-0.173-1.198-0.52-1.591c-0.347-0.391-0.952-0.588-1.813-0.588
			c-0.424,0-0.819,0.094-1.186,0.28c-0.366,0.187-0.678,0.446-0.935,0.781c-0.257,0.333-0.46,0.729-0.608,1.185
			c-0.148,0.457-0.221,0.961-0.221,1.514c0,1.015,0.241,1.818,0.722,2.41c0.483,0.59,1.16,0.886,2.035,0.886
			c0.745,0,1.369-0.134,1.869-0.405c0.502-0.27,0.867-0.597,1.099-0.983c0.129-0.206,0.247-0.34,0.358-0.405
			c0.109-0.065,0.208-0.097,0.299-0.097c0.141,0,0.273,0.039,0.395,0.116c0.121,0.078,0.183,0.206,0.183,0.386
			c0,0.104-0.016,0.19-0.048,0.261c-0.032,0.07-0.081,0.157-0.144,0.26c-0.901,1.376-2.211,2.063-3.933,2.063
			c-0.682,0-1.288-0.116-1.822-0.347c-0.533-0.231-0.983-0.55-1.349-0.955c-0.367-0.405-0.649-0.877-0.849-1.416
			c-0.199-0.541-0.299-1.119-0.299-1.736c0-0.694,0.112-1.342,0.338-1.947c0.225-0.604,0.537-1.127,0.935-1.571
			c0.398-0.444,0.874-0.793,1.427-1.05s1.15-0.386,1.792-0.386c0.488,0,0.925,0.067,1.311,0.203
			C52.161,60.977,52.494,61.256,52.777,61.68z"/>
		<path fill="#B72245" d="M58.617,68.813h1.099c0.282,0,0.508,0.031,0.675,0.095s0.25,0.226,0.25,0.483
			c0,0.167-0.058,0.299-0.173,0.394c-0.116,0.097-0.25,0.145-0.405,0.145h-3.451c-0.153,0-0.312-0.003-0.472-0.009
			c-0.161-0.007-0.303-0.026-0.424-0.058c-0.122-0.032-0.226-0.083-0.309-0.155c-0.083-0.07-0.125-0.169-0.125-0.299
			c0-0.116,0.026-0.206,0.077-0.27c0.051-0.063,0.129-0.112,0.231-0.144c0.104-0.032,0.222-0.058,0.358-0.078
			c0.134-0.019,0.292-0.042,0.472-0.067c0.282-0.038,0.475-0.079,0.578-0.125c0.102-0.044,0.167-0.139,0.192-0.28
			c0.039-0.411,0.062-0.858,0.069-1.339c0.005-0.483,0.009-0.909,0.009-1.283c0-0.488-0.007-0.956-0.02-1.407
			c-0.012-0.45-0.032-0.918-0.058-1.408c-0.012-0.153-0.038-0.278-0.077-0.375c-0.039-0.097-0.109-0.145-0.212-0.145
			c-0.051,0-0.151,0.007-0.299,0.02c-0.148,0.012-0.303,0.022-0.463,0.028c-0.161,0.007-0.312,0.016-0.453,0.03
			c-0.141,0.012-0.238,0.019-0.289,0.019c-0.104,0-0.219-0.032-0.347-0.097c-0.129-0.063-0.192-0.134-0.192-0.211
			c0-0.155,0.031-0.27,0.095-0.347c0.065-0.078,0.157-0.136,0.28-0.173c0.122-0.039,0.27-0.065,0.444-0.078
			c0.173-0.012,0.37-0.032,0.588-0.058c0.167-0.012,0.347-0.026,0.541-0.038c0.192-0.013,0.382-0.027,0.569-0.039
			c0.186-0.013,0.356-0.019,0.51-0.019c0.155,0,0.284,0,0.386,0c0.155,0,0.251,0.061,0.289,0.183
			c0.039,0.122,0.058,0.285,0.058,0.491V68.813z M56.669,58.75c0-0.09,0.023-0.202,0.067-0.338c0.046-0.134,0.11-0.26,0.194-0.375
			c0.083-0.116,0.195-0.215,0.338-0.3c0.141-0.083,0.308-0.125,0.5-0.125c0.257,0,0.483,0.094,0.675,0.28
			c0.194,0.187,0.289,0.446,0.289,0.781c0,0.463-0.125,0.784-0.375,0.964c-0.251,0.18-0.492,0.269-0.723,0.269
			c-0.27,0-0.498-0.109-0.684-0.327C56.762,59.36,56.669,59.085,56.669,58.75z"/>
		<path fill="#B72245" d="M70.087,65.44c0,0.784-0.141,1.471-0.424,2.063c-0.284,0.59-0.647,1.082-1.089,1.474
			c-0.444,0.393-0.943,0.684-1.494,0.878c-0.553,0.192-1.1,0.289-1.639,0.289c-0.655,0-1.253-0.113-1.792-0.338
			c-0.541-0.225-1.006-0.543-1.398-0.955c-0.391-0.411-0.697-0.902-0.916-1.475c-0.218-0.572-0.327-1.198-0.327-1.879
			c0-0.668,0.109-1.288,0.327-1.861c0.219-0.572,0.531-1.062,0.936-1.474c0.405-0.411,0.893-0.736,1.464-0.974
			s1.218-0.358,1.938-0.358s1.353,0.126,1.899,0.377c0.546,0.25,1.006,0.588,1.378,1.013c0.372,0.424,0.656,0.912,0.849,1.464
			C69.99,64.237,70.087,64.822,70.087,65.44z M65.653,61.989c-0.425,0-0.83,0.077-1.214,0.231c-0.386,0.153-0.727,0.379-1.022,0.674
			c-0.296,0.296-0.53,0.663-0.705,1.1c-0.173,0.437-0.26,0.932-0.26,1.483c0,0.592,0.093,1.105,0.28,1.542
			c0.186,0.437,0.426,0.8,0.722,1.089c0.296,0.289,0.624,0.504,0.984,0.647c0.359,0.141,0.706,0.211,1.041,0.211
			c0.333,0,0.687-0.07,1.06-0.211c0.372-0.143,0.719-0.358,1.041-0.647c0.321-0.289,0.585-0.658,0.791-1.108s0.308-0.983,0.308-1.6
			c0-0.502-0.074-0.96-0.221-1.378c-0.148-0.417-0.354-0.777-0.617-1.08c-0.264-0.301-0.582-0.537-0.955-0.703
			C66.514,62.072,66.103,61.989,65.653,61.989z"/>
		<path fill="#B72245" d="M78.646,68.813h1.099c0.282,0,0.508,0.031,0.675,0.095c0.167,0.065,0.25,0.226,0.25,0.483
			c0,0.167-0.058,0.299-0.173,0.394c-0.116,0.097-0.25,0.145-0.405,0.145h-3.451c-0.153,0-0.312-0.003-0.472-0.009
			c-0.161-0.007-0.303-0.026-0.424-0.058c-0.122-0.032-0.226-0.083-0.309-0.155c-0.083-0.07-0.125-0.169-0.125-0.299
			c0-0.116,0.026-0.206,0.077-0.27c0.051-0.063,0.129-0.112,0.231-0.144c0.104-0.032,0.222-0.058,0.358-0.078
			c0.134-0.019,0.292-0.042,0.472-0.067c0.282-0.038,0.475-0.079,0.578-0.125c0.102-0.044,0.167-0.139,0.192-0.28
			c0.039-0.411,0.062-0.858,0.069-1.339c0.005-0.483,0.009-0.909,0.009-1.283c0-0.488-0.007-0.956-0.02-1.407
			c-0.012-0.45-0.032-0.918-0.058-1.408c-0.012-0.153-0.038-0.278-0.077-0.375c-0.039-0.097-0.109-0.145-0.212-0.145
			c-0.051,0-0.151,0.007-0.299,0.02c-0.148,0.012-0.303,0.022-0.463,0.028c-0.161,0.007-0.312,0.016-0.453,0.03
			c-0.141,0.012-0.238,0.019-0.289,0.019c-0.104,0-0.219-0.032-0.347-0.097c-0.129-0.063-0.192-0.134-0.192-0.211
			c0-0.155,0.031-0.27,0.095-0.347c0.065-0.078,0.157-0.136,0.28-0.173c0.122-0.039,0.27-0.065,0.444-0.078
			c0.173-0.012,0.37-0.032,0.588-0.058c0.167-0.012,0.347-0.026,0.541-0.038c0.192-0.013,0.382-0.027,0.569-0.039
			c0.186-0.013,0.356-0.019,0.51-0.019c0.155,0,0.284,0,0.386,0c0.155,0,0.251,0.061,0.289,0.183
			c0.039,0.122,0.058,0.285,0.058,0.491V68.813z M76.699,58.75c0-0.09,0.023-0.202,0.067-0.338c0.046-0.134,0.11-0.26,0.194-0.375
			s0.195-0.215,0.338-0.3c0.141-0.083,0.308-0.125,0.5-0.125c0.257,0,0.483,0.094,0.675,0.28c0.194,0.187,0.289,0.446,0.289,0.781
			c0,0.463-0.125,0.784-0.375,0.964c-0.251,0.18-0.492,0.269-0.723,0.269c-0.27,0-0.498-0.109-0.684-0.327
			C76.792,59.36,76.699,59.085,76.699,58.75z"/>
		<path fill="#B72245" d="M90.329,69.372h1.041c0.09,0,0.195,0.007,0.317,0.02c0.122,0.012,0.242,0.042,0.358,0.086
			c0.116,0.046,0.211,0.109,0.289,0.192c0.077,0.085,0.116,0.196,0.116,0.338c0,0.194-0.071,0.321-0.212,0.386
			s-0.308,0.097-0.502,0.097c-0.065,0-0.273,0.003-0.627,0.009c-0.354,0.007-0.738,0.009-1.156,0.009s-0.803,0.003-1.156,0.009
			s-0.557,0.009-0.608,0.009c-0.167,0-0.315-0.035-0.442-0.105c-0.129-0.071-0.194-0.216-0.194-0.434
			c0-0.18,0.062-0.312,0.184-0.395c0.121-0.083,0.241-0.137,0.356-0.164c0.321-0.038,0.533-0.095,0.636-0.173
			c0.102-0.077,0.167-0.269,0.192-0.578c0.026-0.514,0.042-0.951,0.048-1.311c0.007-0.359,0.009-0.553,0.009-0.578
			c0-0.59-0.023-1.159-0.067-1.706c-0.046-0.546-0.134-1.021-0.27-1.425c-0.134-0.405-0.327-0.73-0.578-0.974
			c-0.25-0.245-0.588-0.367-1.011-0.367c-0.541,0-1.019,0.183-1.436,0.55c-0.418,0.366-0.737,0.793-0.955,1.282
			c-0.141,0.296-0.247,0.64-0.319,1.031c-0.07,0.393-0.105,0.781-0.105,1.167v2.158h1.291c0.218,0,0.398,0.039,0.539,0.116
			c0.141,0.077,0.212,0.245,0.212,0.502c0,0.219-0.061,0.36-0.183,0.424c-0.122,0.065-0.312,0.097-0.569,0.097
			c-0.051,0-0.247,0-0.588,0c-0.342,0-0.717,0.003-1.128,0.009s-0.793,0.009-1.147,0.009s-0.562,0-0.627,0
			c-0.206,0-0.395-0.026-0.569-0.077c-0.173-0.051-0.26-0.199-0.26-0.444c0-0.231,0.079-0.385,0.241-0.463
			c0.16-0.077,0.319-0.116,0.472-0.116h0.386c0.116,0,0.208-0.035,0.28-0.106c0.07-0.07,0.125-0.16,0.164-0.269
			c0.038-0.109,0.063-0.222,0.077-0.338c0.012-0.116,0.019-0.225,0.019-0.328c0-0.218,0.007-0.569,0.02-1.05
			c0.012-0.483,0.026-0.98,0.038-1.494c0.013-0.514,0.023-0.978,0.03-1.389c0.007-0.41,0.009-0.655,0.009-0.732
			c0-0.425-0.109-0.636-0.328-0.636h-1.002c-0.129,0-0.268-0.004-0.414-0.011c-0.148-0.005-0.284-0.019-0.405-0.038
			c-0.122-0.02-0.226-0.051-0.309-0.097c-0.083-0.044-0.125-0.106-0.125-0.183c0-0.129,0.048-0.234,0.145-0.319
			c0.095-0.083,0.266-0.151,0.51-0.202c0.245-0.051,0.569-0.087,0.974-0.106c0.405-0.019,0.916-0.03,1.533-0.03
			c0.335,0,0.539,0.039,0.617,0.116c0.077,0.078,0.122,0.245,0.134,0.502l0.058,1.195c0.282-0.604,0.707-1.07,1.272-1.397
			c0.566-0.328,1.17-0.492,1.813-0.492c0.282,0,0.594,0.048,0.935,0.145c0.34,0.095,0.659,0.282,0.955,0.558
			c0.296,0.277,0.539,0.659,0.733,1.147c0.192,0.489,0.289,1.126,0.289,1.909V69.372z"/>
		<path fill="#B72245" d="M93.973,62.142c-0.245,0-0.52,0.007-0.83,0.02c-0.308,0.012-0.578,0.019-0.81,0.019
			c-0.077,0-0.19-0.039-0.338-0.116c-0.148-0.077-0.222-0.231-0.222-0.463c0-0.18,0.065-0.312,0.194-0.395
			c0.128-0.083,0.282-0.139,0.463-0.164l0.983-0.097c0.257-0.026,0.411-0.086,0.463-0.183c0.051-0.095,0.077-0.253,0.077-0.472
			c0-0.27,0.003-0.562,0.009-0.877s0.042-0.601,0.106-0.858c0.065-0.257,0.167-0.411,0.309-0.463
			c0.141-0.051,0.243-0.078,0.308-0.078c0.167,0,0.315,0.042,0.444,0.126c0.128,0.083,0.192,0.317,0.192,0.703v2.063
			c0.09,0,0.264-0.003,0.52-0.009c0.257-0.007,0.53-0.016,0.819-0.03c0.29-0.012,0.557-0.022,0.8-0.028
			c0.245-0.007,0.405-0.011,0.483-0.011c0.153,0,0.308,0.043,0.463,0.126c0.155,0.083,0.231,0.227,0.231,0.433
			c0,0.18-0.058,0.312-0.173,0.395c-0.116,0.083-0.231,0.139-0.347,0.164c-0.463,0.051-0.935,0.083-1.417,0.097
			c-0.481,0.012-0.941,0.032-1.378,0.058v4.896c0,0.206,0.013,0.424,0.039,0.655s0.074,0.448,0.144,0.647
			c0.071,0.199,0.173,0.363,0.309,0.491c0.134,0.129,0.317,0.194,0.549,0.194c0.206,0,0.372-0.036,0.502-0.106
			c0.128-0.071,0.238-0.157,0.328-0.261c0.089-0.102,0.16-0.212,0.211-0.328c0.051-0.116,0.097-0.225,0.136-0.327
			c0.038-0.104,0.074-0.206,0.106-0.309c0.031-0.102,0.073-0.195,0.125-0.28c0.051-0.083,0.122-0.151,0.211-0.202
			c0.09-0.051,0.212-0.077,0.367-0.077c0.102,0,0.186,0.026,0.25,0.077s0.113,0.109,0.145,0.173
			c0.031,0.065,0.054,0.129,0.067,0.192c0.012,0.065,0.019,0.11,0.019,0.136c0,0.18-0.051,0.411-0.153,0.694
			c-0.104,0.282-0.268,0.555-0.492,0.819c-0.225,0.264-0.511,0.488-0.858,0.675c-0.347,0.186-0.758,0.28-1.233,0.28
			c-0.733,0-1.273-0.264-1.62-0.791c-0.128-0.192-0.227-0.402-0.299-0.627c-0.071-0.225-0.125-0.456-0.164-0.694
			c-0.038-0.238-0.061-0.465-0.067-0.684c-0.007-0.218-0.009-0.417-0.009-0.597L93.973,62.142z"/>
		<path fill="#B72245" d="M101.085,65.324c-0.013,0.065-0.023,0.132-0.03,0.202c-0.005,0.071-0.009,0.139-0.009,0.203
			c0,0.385,0.065,0.771,0.194,1.156c0.128,0.386,0.317,0.733,0.569,1.041c0.25,0.308,0.558,0.557,0.925,0.742
			c0.366,0.187,0.787,0.28,1.263,0.28c0.5,0,0.925-0.077,1.272-0.231c0.347-0.155,0.627-0.35,0.838-0.588
			c0.212-0.238,0.367-0.495,0.464-0.772c0.095-0.276,0.144-0.53,0.144-0.761c0-0.104,0.042-0.231,0.125-0.386
			c0.083-0.155,0.261-0.231,0.53-0.231c0.155,0,0.29,0.055,0.406,0.164s0.173,0.261,0.173,0.453c0,0.45-0.069,0.89-0.203,1.321
			c-0.134,0.43-0.363,0.812-0.684,1.147c-0.321,0.335-0.758,0.604-1.311,0.81c-0.553,0.206-1.24,0.308-2.063,0.308
			c-0.668,0-1.256-0.112-1.763-0.338c-0.508-0.225-0.936-0.542-1.283-0.953c-0.347-0.411-0.606-0.897-0.78-1.456
			c-0.173-0.558-0.261-1.178-0.261-1.86c0-0.745,0.102-1.42,0.308-2.024s0.502-1.112,0.888-1.524
			c0.386-0.411,0.849-0.729,1.388-0.953c0.541-0.225,1.138-0.338,1.792-0.338c0.707,0,1.304,0.125,1.794,0.375
			c0.488,0.251,0.879,0.553,1.175,0.906c0.296,0.354,0.508,0.719,0.636,1.099c0.129,0.379,0.194,0.698,0.194,0.955
			c0,0.296-0.071,0.571-0.212,0.828c-0.141,0.258-0.34,0.386-0.598,0.386c-0.398,0-0.87,0.003-1.416,0.009
			c-0.547,0.007-1.128,0.009-1.745,0.009c-0.128,0-0.315,0-0.558,0c-0.245,0-0.502,0.004-0.772,0.011
			c-0.27,0.005-0.53,0.009-0.78,0.009C101.442,65.324,101.24,65.324,101.085,65.324z M106.039,64.09
			c0.219,0,0.328-0.051,0.328-0.153c0-0.194-0.051-0.409-0.155-0.647c-0.102-0.237-0.254-0.456-0.453-0.655
			c-0.199-0.199-0.452-0.367-0.761-0.502c-0.308-0.134-0.668-0.202-1.08-0.202c-0.398,0-0.758,0.067-1.078,0.202
			c-0.321,0.134-0.598,0.308-0.83,0.52c-0.231,0.212-0.418,0.45-0.559,0.714c-0.141,0.264-0.238,0.53-0.289,0.8L106.039,64.09z"/>
		<path fill="#B72245" d="M111.707,54.798c0,0.321-0.003,0.659-0.009,1.013c-0.007,0.354-0.009,0.682-0.009,0.983
			c0,0.303,0,0.553,0,0.752s0,0.305,0,0.319c0,2.905,0.005,5.243,0.019,7.017c0.013,1.774,0.019,3.091,0.019,3.952h0.888
			c0.398,0,0.659,0.065,0.781,0.192c0.121,0.129,0.183,0.27,0.183,0.425c0,0.102-0.055,0.211-0.164,0.327
			c-0.109,0.116-0.299,0.173-0.569,0.173c-0.09,0-0.212-0.003-0.366-0.009c-0.155-0.007-0.319-0.012-0.492-0.019
			s-0.354-0.013-0.539-0.02c-0.187-0.005-0.364-0.009-0.531-0.009c-0.128,0-0.273,0.004-0.433,0.009
			c-0.161,0.007-0.321,0.011-0.483,0.011c-0.16,0-0.315,0.003-0.463,0.009s-0.273,0.009-0.375,0.009
			c-0.309,0-0.524-0.055-0.645-0.164c-0.122-0.109-0.184-0.222-0.184-0.338c0-0.192,0.052-0.324,0.155-0.395
			c0.102-0.07,0.186-0.105,0.25-0.105l0.636-0.039c0.58-0.039,0.881-0.238,0.906-0.598c0.013-0.359,0.026-0.738,0.039-1.136
			c0.012-0.399,0.026-0.849,0.039-1.35c0.012-0.502,0.019-1.066,0.019-1.696c0-0.631,0-1.343,0-2.141c0-0.822,0-1.545,0-2.169
			c0-0.623-0.004-1.182-0.009-1.677c-0.007-0.495-0.009-0.941-0.009-1.339c0-0.398,0-0.784,0-1.156c0-0.206-0.02-0.347-0.058-0.425
			c-0.039-0.077-0.143-0.116-0.309-0.116h-1.195c-0.269,0-0.484-0.028-0.645-0.086c-0.16-0.058-0.241-0.164-0.241-0.319
			c0-0.128,0.093-0.227,0.28-0.299c0.186-0.07,0.417-0.125,0.694-0.164c0.276-0.039,0.569-0.065,0.877-0.077
			c0.309-0.013,0.592-0.02,0.849-0.02c0.359,0,0.633,0.03,0.819,0.087C111.614,54.268,111.707,54.464,111.707,54.798z"/>
		<path fill="#B72245" d="M117.221,68.813h1.099c0.282,0,0.508,0.031,0.675,0.095c0.167,0.065,0.25,0.226,0.25,0.483
			c0,0.167-0.058,0.299-0.173,0.394c-0.116,0.097-0.25,0.145-0.405,0.145h-3.451c-0.153,0-0.312-0.003-0.472-0.009
			c-0.161-0.007-0.303-0.026-0.424-0.058c-0.122-0.032-0.226-0.083-0.309-0.155c-0.083-0.07-0.125-0.169-0.125-0.299
			c0-0.116,0.026-0.206,0.077-0.27c0.051-0.063,0.129-0.112,0.231-0.144c0.104-0.032,0.222-0.058,0.358-0.078
			c0.134-0.019,0.292-0.042,0.472-0.067c0.282-0.038,0.475-0.079,0.578-0.125c0.102-0.044,0.167-0.139,0.192-0.28
			c0.039-0.411,0.062-0.858,0.069-1.339c0.005-0.483,0.009-0.909,0.009-1.283c0-0.488-0.007-0.956-0.02-1.407
			c-0.012-0.45-0.032-0.918-0.058-1.408c-0.012-0.153-0.038-0.278-0.077-0.375c-0.039-0.097-0.109-0.145-0.212-0.145
			c-0.051,0-0.151,0.007-0.299,0.02c-0.148,0.012-0.303,0.022-0.463,0.028c-0.161,0.007-0.312,0.016-0.453,0.03
			c-0.141,0.012-0.238,0.019-0.289,0.019c-0.104,0-0.219-0.032-0.347-0.097c-0.129-0.063-0.192-0.134-0.192-0.211
			c0-0.155,0.031-0.27,0.095-0.347c0.065-0.078,0.157-0.136,0.28-0.173c0.122-0.039,0.27-0.065,0.444-0.078
			c0.173-0.012,0.37-0.032,0.588-0.058c0.167-0.012,0.347-0.026,0.541-0.038c0.192-0.013,0.382-0.027,0.569-0.039
			c0.186-0.013,0.356-0.019,0.51-0.019c0.155,0,0.284,0,0.386,0c0.155,0,0.251,0.061,0.289,0.183
			c0.039,0.122,0.058,0.285,0.058,0.491V68.813z M115.273,58.75c0-0.09,0.023-0.202,0.067-0.338c0.046-0.134,0.11-0.26,0.194-0.375
			c0.083-0.116,0.195-0.215,0.338-0.3c0.141-0.083,0.308-0.125,0.5-0.125c0.257,0,0.483,0.094,0.675,0.28
			c0.194,0.187,0.289,0.446,0.289,0.781c0,0.463-0.125,0.784-0.375,0.964c-0.251,0.18-0.492,0.269-0.723,0.269
			c-0.27,0-0.498-0.109-0.684-0.327C115.366,59.36,115.273,59.085,115.273,58.75z"/>
		<path fill="#B72245" d="M123.679,61.063c0.526,0,1.015,0.071,1.464,0.212c0.155-0.206,0.324-0.405,0.511-0.597
			c0.187-0.194,0.382-0.36,0.588-0.502c0.206-0.141,0.411-0.254,0.617-0.338c0.206-0.083,0.398-0.125,0.578-0.125
			c0.167,0,0.331,0.048,0.492,0.144c0.16,0.097,0.241,0.254,0.241,0.473c0,0.141-0.042,0.264-0.125,0.366
			c-0.085,0.104-0.196,0.167-0.338,0.192c-0.282,0.027-0.578,0.097-0.888,0.212c-0.308,0.116-0.59,0.303-0.847,0.559
			c0.449,0.282,0.783,0.639,1.002,1.07c0.218,0.43,0.328,0.896,0.328,1.397c0,0.45-0.083,0.867-0.251,1.253
			c-0.167,0.385-0.414,0.719-0.741,1.002c-0.328,0.284-0.727,0.504-1.195,0.666c-0.469,0.16-1.006,0.241-1.61,0.241
			c-0.18,0-0.344-0.007-0.492-0.019c-0.148-0.013-0.305-0.046-0.472-0.097c-0.284,0.104-0.515,0.225-0.694,0.366
			c-0.18,0.143-0.27,0.328-0.27,0.559c0,0.257,0.243,0.441,0.733,0.55c0.488,0.109,1.233,0.169,2.236,0.183
			c0.553,0,1.131,0.026,1.735,0.077c0.604,0.051,1.159,0.171,1.667,0.356c0.508,0.187,0.928,0.469,1.263,0.849
			c0.333,0.379,0.502,0.904,0.502,1.572c0,0.463-0.132,0.883-0.395,1.263c-0.264,0.378-0.633,0.699-1.108,0.963
			c-0.476,0.264-1.045,0.469-1.706,0.617c-0.662,0.148-1.392,0.222-2.188,0.222c-0.631,0-1.228-0.058-1.794-0.173
			c-0.565-0.116-1.06-0.293-1.483-0.53c-0.425-0.238-0.762-0.537-1.013-0.897s-0.377-0.777-0.377-1.253
			c0-1.105,0.746-1.806,2.236-2.1c-0.5-0.09-0.909-0.251-1.224-0.483c-0.315-0.231-0.472-0.597-0.472-1.099
			c0-0.372,0.1-0.664,0.299-0.877c0.199-0.212,0.498-0.407,0.897-0.588c-0.411-0.27-0.717-0.631-0.916-1.08
			c-0.2-0.45-0.3-0.918-0.3-1.408c0-0.463,0.085-0.886,0.251-1.272c0.167-0.386,0.401-0.723,0.703-1.013
			c0.303-0.289,0.668-0.514,1.099-0.674C122.653,61.143,123.139,61.063,123.679,61.063z M124.815,69.95
			c-0.411,0-0.835,0.039-1.272,0.116c-0.437,0.078-0.842,0.199-1.214,0.367c-0.372,0.167-0.678,0.375-0.916,0.627
			c-0.238,0.25-0.356,0.555-0.356,0.916c0,0.269,0.106,0.504,0.317,0.703c0.212,0.199,0.492,0.366,0.839,0.502
			c0.347,0.134,0.733,0.234,1.156,0.299c0.425,0.065,0.849,0.097,1.272,0.097c1.195,0,2.104-0.168,2.728-0.502
			c0.623-0.335,0.935-0.746,0.935-1.234c0-0.308-0.077-0.572-0.231-0.791c-0.153-0.218-0.35-0.394-0.588-0.53
			c-0.238-0.134-0.498-0.241-0.781-0.317c-0.282-0.078-0.553-0.136-0.81-0.173c-0.257-0.039-0.485-0.062-0.684-0.067
			C125.012,69.954,124.88,69.95,124.815,69.95z M123.814,62.22c-0.694,0-1.24,0.192-1.639,0.578
			c-0.398,0.385-0.597,0.886-0.597,1.503c0,0.502,0.183,0.932,0.55,1.291c0.366,0.36,0.883,0.541,1.552,0.541
			c0.694,0,1.236-0.183,1.628-0.55c0.391-0.366,0.588-0.851,0.588-1.455c0-0.578-0.183-1.041-0.549-1.388
			C124.98,62.394,124.469,62.22,123.814,62.22z"/>
		<path fill="#B72245" d="M130.657,65.324c-0.013,0.065-0.023,0.132-0.03,0.202c-0.005,0.071-0.009,0.139-0.009,0.203
			c0,0.385,0.065,0.771,0.194,1.156c0.128,0.386,0.317,0.733,0.569,1.041c0.25,0.308,0.558,0.557,0.925,0.742
			c0.366,0.187,0.787,0.28,1.263,0.28c0.5,0,0.925-0.077,1.272-0.231c0.347-0.155,0.627-0.35,0.838-0.588
			c0.212-0.238,0.367-0.495,0.464-0.772c0.095-0.276,0.144-0.53,0.144-0.761c0-0.104,0.042-0.231,0.125-0.386
			s0.261-0.231,0.53-0.231c0.155,0,0.29,0.055,0.406,0.164s0.173,0.261,0.173,0.453c0,0.45-0.069,0.89-0.203,1.321
			s-0.363,0.812-0.684,1.147c-0.321,0.335-0.758,0.604-1.311,0.81c-0.553,0.206-1.24,0.308-2.063,0.308
			c-0.668,0-1.256-0.112-1.763-0.338c-0.508-0.225-0.936-0.542-1.283-0.953c-0.347-0.411-0.606-0.897-0.78-1.456
			c-0.173-0.558-0.261-1.178-0.261-1.86c0-0.745,0.102-1.42,0.308-2.024c0.206-0.604,0.502-1.112,0.888-1.524
			c0.386-0.411,0.849-0.729,1.388-0.953c0.541-0.225,1.138-0.338,1.793-0.338c0.707,0,1.304,0.125,1.794,0.375
			c0.488,0.251,0.879,0.553,1.175,0.906s0.508,0.719,0.636,1.099c0.129,0.379,0.194,0.698,0.194,0.955
			c0,0.296-0.071,0.571-0.212,0.828c-0.141,0.258-0.34,0.386-0.598,0.386c-0.398,0-0.87,0.003-1.416,0.009
			c-0.547,0.007-1.128,0.009-1.745,0.009c-0.128,0-0.315,0-0.558,0c-0.245,0-0.502,0.004-0.772,0.011
			c-0.27,0.005-0.53,0.009-0.78,0.009C131.013,65.324,130.812,65.324,130.657,65.324z M135.611,64.09
			c0.219,0,0.328-0.051,0.328-0.153c0-0.194-0.051-0.409-0.155-0.647c-0.102-0.237-0.254-0.456-0.453-0.655
			s-0.452-0.367-0.761-0.502c-0.308-0.134-0.668-0.202-1.08-0.202c-0.398,0-0.758,0.067-1.078,0.202
			c-0.321,0.134-0.598,0.308-0.83,0.52c-0.231,0.212-0.418,0.45-0.559,0.714c-0.141,0.264-0.238,0.53-0.289,0.8L135.611,64.09z"/>
		<path fill="#B72245" d="M147.911,69.372h1.041c0.09,0,0.195,0.007,0.317,0.02c0.122,0.012,0.242,0.042,0.358,0.086
			c0.116,0.046,0.211,0.109,0.289,0.192c0.077,0.085,0.116,0.196,0.116,0.338c0,0.194-0.071,0.321-0.212,0.386
			s-0.308,0.097-0.502,0.097c-0.065,0-0.273,0.003-0.627,0.009c-0.354,0.007-0.738,0.009-1.156,0.009
			c-0.418,0-0.803,0.003-1.156,0.009s-0.557,0.009-0.608,0.009c-0.167,0-0.315-0.035-0.442-0.105
			c-0.129-0.071-0.194-0.216-0.194-0.434c0-0.18,0.062-0.312,0.184-0.395c0.121-0.083,0.241-0.137,0.356-0.164
			c0.321-0.038,0.533-0.095,0.636-0.173c0.102-0.077,0.167-0.269,0.192-0.578c0.026-0.514,0.042-0.951,0.048-1.311
			c0.007-0.359,0.009-0.553,0.009-0.578c0-0.59-0.023-1.159-0.067-1.706c-0.046-0.546-0.134-1.021-0.27-1.425
			c-0.134-0.405-0.327-0.73-0.578-0.974c-0.25-0.245-0.588-0.367-1.011-0.367c-0.541,0-1.019,0.183-1.436,0.55
			c-0.418,0.366-0.737,0.793-0.955,1.282c-0.141,0.296-0.247,0.64-0.319,1.031c-0.07,0.393-0.105,0.781-0.105,1.167v2.158h1.291
			c0.218,0,0.398,0.039,0.539,0.116c0.141,0.077,0.212,0.245,0.212,0.502c0,0.219-0.061,0.36-0.183,0.424
			c-0.122,0.065-0.312,0.097-0.569,0.097c-0.051,0-0.247,0-0.588,0c-0.342,0-0.717,0.003-1.128,0.009s-0.793,0.009-1.147,0.009
			c-0.354,0-0.562,0-0.627,0c-0.206,0-0.395-0.026-0.569-0.077c-0.173-0.051-0.26-0.199-0.26-0.444c0-0.231,0.079-0.385,0.241-0.463
			c0.16-0.077,0.319-0.116,0.472-0.116h0.386c0.116,0,0.208-0.035,0.28-0.106c0.07-0.07,0.125-0.16,0.164-0.269
			c0.038-0.109,0.063-0.222,0.077-0.338c0.012-0.116,0.019-0.225,0.019-0.328c0-0.218,0.007-0.569,0.02-1.05
			c0.012-0.483,0.026-0.98,0.038-1.494c0.013-0.514,0.023-0.978,0.03-1.389c0.007-0.41,0.009-0.655,0.009-0.732
			c0-0.425-0.109-0.636-0.328-0.636h-1.002c-0.129,0-0.268-0.004-0.414-0.011c-0.148-0.005-0.284-0.019-0.405-0.038
			c-0.122-0.02-0.226-0.051-0.309-0.097c-0.083-0.044-0.125-0.106-0.125-0.183c0-0.129,0.048-0.234,0.145-0.319
			c0.095-0.083,0.266-0.151,0.51-0.202c0.245-0.051,0.569-0.087,0.974-0.106s0.916-0.03,1.533-0.03c0.335,0,0.539,0.039,0.617,0.116
			c0.077,0.078,0.122,0.245,0.134,0.502l0.058,1.195c0.282-0.604,0.707-1.07,1.272-1.397c0.566-0.328,1.17-0.492,1.813-0.492
			c0.282,0,0.594,0.048,0.935,0.145c0.34,0.095,0.659,0.282,0.955,0.558c0.296,0.277,0.539,0.659,0.733,1.147
			c0.192,0.489,0.289,1.126,0.289,1.909V69.372z"/>
		<path fill="#B72245" d="M151.555,62.142c-0.245,0-0.52,0.007-0.83,0.02c-0.308,0.012-0.578,0.019-0.81,0.019
			c-0.077,0-0.19-0.039-0.338-0.116s-0.222-0.231-0.222-0.463c0-0.18,0.065-0.312,0.194-0.395c0.128-0.083,0.282-0.139,0.463-0.164
			l0.983-0.097c0.257-0.026,0.411-0.086,0.463-0.183c0.051-0.095,0.077-0.253,0.077-0.472c0-0.27,0.003-0.562,0.009-0.877
			s0.042-0.601,0.106-0.858c0.065-0.257,0.167-0.411,0.309-0.463c0.141-0.051,0.243-0.078,0.308-0.078
			c0.167,0,0.315,0.042,0.444,0.126c0.128,0.083,0.192,0.317,0.192,0.703v2.063c0.09,0,0.264-0.003,0.52-0.009
			c0.257-0.007,0.53-0.016,0.819-0.03c0.29-0.012,0.557-0.022,0.8-0.028c0.245-0.007,0.405-0.011,0.483-0.011
			c0.153,0,0.308,0.043,0.463,0.126c0.155,0.083,0.231,0.227,0.231,0.433c0,0.18-0.058,0.312-0.173,0.395
			c-0.116,0.083-0.231,0.139-0.347,0.164c-0.463,0.051-0.935,0.083-1.417,0.097c-0.481,0.012-0.941,0.032-1.378,0.058v4.896
			c0,0.206,0.013,0.424,0.039,0.655c0.026,0.231,0.074,0.448,0.144,0.647c0.071,0.199,0.173,0.363,0.309,0.491
			c0.134,0.129,0.317,0.194,0.549,0.194c0.206,0,0.372-0.036,0.502-0.106c0.128-0.071,0.238-0.157,0.328-0.261
			c0.089-0.102,0.16-0.212,0.211-0.328s0.097-0.225,0.136-0.327c0.038-0.104,0.074-0.206,0.106-0.309
			c0.031-0.102,0.073-0.195,0.125-0.28c0.051-0.083,0.122-0.151,0.211-0.202c0.09-0.051,0.212-0.077,0.367-0.077
			c0.102,0,0.186,0.026,0.25,0.077s0.113,0.109,0.145,0.173c0.031,0.065,0.054,0.129,0.067,0.192
			c0.012,0.065,0.019,0.11,0.019,0.136c0,0.18-0.051,0.411-0.153,0.694c-0.104,0.282-0.268,0.555-0.492,0.819
			c-0.225,0.264-0.511,0.488-0.858,0.675c-0.347,0.186-0.758,0.28-1.233,0.28c-0.733,0-1.273-0.264-1.62-0.791
			c-0.128-0.192-0.227-0.402-0.299-0.627c-0.071-0.225-0.125-0.456-0.164-0.694c-0.038-0.238-0.061-0.465-0.067-0.684
			c-0.007-0.218-0.009-0.417-0.009-0.597L151.555,62.142z"/>
		<path fill="#B72245" d="M158.667,65.324c-0.013,0.065-0.023,0.132-0.03,0.202c-0.005,0.071-0.009,0.139-0.009,0.203
			c0,0.385,0.065,0.771,0.194,1.156c0.128,0.386,0.317,0.733,0.569,1.041c0.25,0.308,0.558,0.557,0.925,0.742
			c0.366,0.187,0.787,0.28,1.263,0.28c0.5,0,0.925-0.077,1.272-0.231c0.347-0.155,0.627-0.35,0.838-0.588
			c0.212-0.238,0.367-0.495,0.464-0.772c0.095-0.276,0.144-0.53,0.144-0.761c0-0.104,0.042-0.231,0.125-0.386
			s0.261-0.231,0.53-0.231c0.155,0,0.29,0.055,0.406,0.164s0.173,0.261,0.173,0.453c0,0.45-0.069,0.89-0.203,1.321
			c-0.134,0.43-0.363,0.812-0.684,1.147c-0.321,0.335-0.758,0.604-1.311,0.81s-1.24,0.308-2.063,0.308
			c-0.668,0-1.256-0.112-1.763-0.338c-0.508-0.225-0.936-0.542-1.283-0.953s-0.606-0.897-0.78-1.456
			c-0.173-0.558-0.261-1.178-0.261-1.86c0-0.745,0.102-1.42,0.308-2.024s0.502-1.112,0.888-1.524
			c0.386-0.411,0.849-0.729,1.388-0.953c0.541-0.225,1.138-0.338,1.792-0.338c0.707,0,1.304,0.125,1.794,0.375
			c0.488,0.251,0.879,0.553,1.175,0.906s0.508,0.719,0.636,1.099c0.129,0.379,0.194,0.698,0.194,0.955
			c0,0.296-0.071,0.571-0.212,0.828c-0.141,0.258-0.34,0.386-0.598,0.386c-0.398,0-0.87,0.003-1.416,0.009
			c-0.547,0.007-1.128,0.009-1.745,0.009c-0.128,0-0.315,0-0.558,0c-0.245,0-0.502,0.004-0.772,0.011
			c-0.27,0.005-0.53,0.009-0.78,0.009C159.024,65.324,158.822,65.324,158.667,65.324z M163.621,64.09
			c0.219,0,0.328-0.051,0.328-0.153c0-0.194-0.051-0.409-0.155-0.647c-0.102-0.237-0.254-0.456-0.453-0.655
			s-0.452-0.367-0.761-0.502c-0.308-0.134-0.668-0.202-1.08-0.202c-0.398,0-0.758,0.067-1.078,0.202
			c-0.321,0.134-0.598,0.308-0.83,0.52c-0.231,0.212-0.418,0.45-0.559,0.714c-0.141,0.264-0.238,0.53-0.289,0.8L163.621,64.09z"/>
	</g>
	<g>
		<g>
			<g>
				<g>
					<path fill="#B72345" d="M8.376,17.276h14.2l0.684-2.366H9.06L8.376,17.276z"/>
				</g>
				<g>
					<polygon fill="#B72345" points="6.802,18.459 8.171,13.726 24.833,13.726 23.465,18.459 					"/>
				</g>
			</g>
			<g>
				<g>
					<path fill="#B72345" d="M2.905,36.008h13.681l3.364-11.633h-4.734l-0.677,2.341h0.818c0.373,0,0.723,0.176,0.946,0.473
						c0.224,0.298,0.294,0.684,0.19,1.042l-1.399,4.795c-0.147,0.504-0.61,0.852-1.136,0.852H7.462
						c-0.372,0-0.722-0.175-0.946-0.472c-0.223-0.297-0.294-0.682-0.191-1.04l2.995-10.356H6.953L2.905,36.008z"/>
				</g>
				<g>
					<polygon fill="#B72345" points="14.325,23.192 12.964,27.898 15.356,27.898 13.956,32.693 7.462,32.693 10.894,20.825 
						6.063,20.825 1.331,37.191 17.475,37.191 21.523,23.192 					"/>
				</g>
			</g>
		</g>
		<g>
			<g>
				<g>
					<path fill="#B72345" d="M28.98,17.276h14.2l0.684-2.366H29.665L28.98,17.276z"/>
				</g>
				<g>
					<polygon fill="#B72345" points="27.407,18.459 28.775,13.726 45.439,13.726 44.07,18.459 					"/>
				</g>
			</g>
			<g>
				<g>
					<path fill="#B72345" d="M23.263,36.008h13.584l0.623-2.132h-9.649c-0.372,0-0.722-0.175-0.946-0.472
						c-0.223-0.297-0.294-0.682-0.191-1.04l1.386-4.795c0.146-0.506,0.609-0.854,1.136-0.854h3.843l0.677-2.341h-3.159
						c-0.372,0-0.722-0.175-0.946-0.472c-0.224-0.298-0.294-0.683-0.191-1.04l0.247-0.854h-2.368L23.263,36.008z"/>
				</g>
				<g>
					<polygon fill="#B72345" points="39.047,32.693 27.821,32.693 29.207,27.898 33.94,27.898 35.301,23.192 30.568,23.192 
						31.253,20.825 26.422,20.825 21.69,37.191 37.735,37.191 					"/>
				</g>
			</g>
		</g>
		<path fill="#B72345" d="M71.37,12.543h9.782l9.225-6.007L80.403,0H57.777l13.455,12.566C71.279,12.56,71.322,12.543,71.37,12.543z
			"/>
		<polygon fill="#B72345" points="70.001,18.459 71.37,13.726 88.032,13.726 86.664,18.459 		"/>
		<polygon fill="#B72345" points="81.642,32.693 70.416,32.693 71.802,27.898 76.534,27.898 77.895,23.192 73.163,23.192 
			73.847,20.825 69.017,20.825 64.283,37.191 80.33,37.191 		"/>
		<g>
			<polygon fill="#B72345" points="51.317,20.825 46.485,20.825 41.753,37.191 46.633,37.191 			"/>
		</g>
		<g>
			<polygon fill="#B72345" points="64.564,13.726 58.917,32.693 56.768,32.693 56.74,13.726 48.789,13.726 47.421,18.459 
				52.03,18.459 52.03,37.191 62.458,37.191 69.396,13.726 			"/>
		</g>
		<g>
			<g>
				<g>
					<polygon fill="#B72345" points="185.623,20.825 180.793,20.825 176.061,37.191 180.941,37.191 					"/>
				</g>
			</g>
			<g>
				<g>
					<polygon fill="#B72345" points="198.869,13.726 193.222,32.693 191.074,32.693 191.045,13.726 183.097,13.726 181.728,18.459 
						186.336,18.459 186.336,37.191 196.764,37.191 203.701,13.726 					"/>
				</g>
			</g>
		</g>
		<g>
			<g>
				<g>
					<polygon fill="#B72345" points="149.659,20.825 144.829,20.825 140.096,37.191 144.976,37.191 					"/>
				</g>
			</g>
			<g>
				<g>
					<polygon fill="#B72345" points="151.942,13.726 147.132,13.726 145.763,18.459 150.573,18.459 					"/>
				</g>
			</g>
		</g>
		<g>
			<path fill="#B72345" d="M103.67,0L84.405,12.543h3.628c0.359,0,0.694,0.17,0.918,0.449c0.216-0.267,0.534-0.449,0.905-0.449
				h7.871c3.98,0,7.312,2.827,8.094,6.579L123.57,2.545l80.814,0.018V0H103.67z"/>
			<path fill="#B72345" d="M84.246,38.374c-0.372,0-0.722-0.175-0.945-0.472c-0.224-0.298-0.295-0.682-0.191-1.04l4.732-16.365
				c0.146-0.506,0.609-0.854,1.136-0.854h4.832c0.372,0,0.721,0.175,0.945,0.471c0.223,0.296,0.295,0.68,0.193,1.037l-0.246,0.858
				h2.694c0.105-0.033,0.216-0.051,0.33-0.051c0.632,0,1.146-0.514,1.146-1.146c0-0.633-0.514-1.147-1.146-1.147
				c-0.08,0-0.158-0.008-0.233-0.023h-7.638c-0.653,0-1.183-0.53-1.183-1.183v-2.687l-0.871,3.016
				c-0.147,0.506-0.61,0.854-1.137,0.854H73.502v0.001h0.345c0.372,0,0.722,0.175,0.946,0.472c0.223,0.298,0.294,0.683,0.191,1.04
				l-0.247,0.854h3.159c0.372,0,0.722,0.175,0.945,0.472c0.224,0.298,0.295,0.682,0.191,1.04l-1.361,4.707
				c-0.146,0.506-0.609,0.854-1.136,0.854h-3.843l-0.702,2.429h9.653c0.373,0,0.723,0.176,0.946,0.473
				c0.224,0.298,0.295,0.684,0.19,1.041l-1.312,4.498c-0.147,0.504-0.61,0.851-1.136,0.851H64.283c-0.357,0-0.69-0.169-0.914-0.445
				c-0.219,0.271-0.548,0.445-0.912,0.445H52.03c-0.654,0-1.183-0.53-1.183-1.183v-2.798l-2.682,1.746l-0.394,1.378
				c-0.146,0.508-0.61,0.858-1.138,0.858h-1.902L28.726,48.795L0,48.802v2.07h71.824l13.382-12.498H84.246z"/>
		</g>
		<path fill="#B72345" d="M97.727,27.896c3.913,0,7.086-3.173,7.086-7.085c0-3.913-3.173-7.085-7.086-7.085h-7.871v4.732h7.871
			v0.023c1.287,0,2.329,1.043,2.329,2.33c0,1.286-1.042,2.329-2.329,2.329v0.051h-4.594l0.677-2.366h-4.832l-4.732,16.365h4.88
			l2.415-8.44l2.416,8.44h4.88l-2.679-9.267h1.569V27.896z"/>
		<polygon fill="#B72345" points="112.308,29.559 111.854,30.29 112.308,30.29 		"/>
		<g>
			<polygon fill="#B72345" points="115.906,13.726 101.303,37.191 109.731,37.191 113.278,31.473 109.728,31.473 113.491,25.408 
				113.491,37.191 118.557,37.191 118.557,13.726 			"/>
		</g>
		<g>
			<path fill="none" stroke="#B72345" stroke-width="3" stroke-miterlimit="10" d="M172.606,26.737
				c-1.235,1.256-2.559,2.521-3.985,3.773c-1.541,1.354-3.082,2.594-4.596,3.724C168.17,33.69,171.531,30.688,172.606,26.737z"/>
			<path fill="#FFFFFF" d="M172.606,26.737c-1.235,1.256-2.559,2.521-3.985,3.773c-1.541,1.354-3.082,2.594-4.596,3.724
				C168.17,33.69,171.531,30.688,172.606,26.737z"/>
		</g>
		<g>
			<path fill="#B72345" d="M180.994,11.274c-1.573-1.791-6.436-0.27-12.281,3.449c0,0,0.523,0.469,0.549,0.379
				c3.858-2.403,6.84-3.429,7.735-2.409c0.997,1.135-0.847,4.509-4.403,8.588c-1.778,2.039-3.975,4.249-6.476,6.451
				c-2.6,2.288-5.167,4.249-7.483,5.779c-4.371,2.887-7.83,4.211-8.808,3.101c-0.872-0.994,0.427-3.703,3.153-7.102l-0.407-0.481
				c-4.183,5.126-6.149,9.54-4.621,11.28c1.906,2.165,8.621-0.508,16.073-6.074c1.514-1.13,3.055-2.37,4.596-3.724
				c1.426-1.252,2.75-2.517,3.985-3.773C179.271,19.951,182.926,13.475,180.994,11.274z"/>
		</g>
		<g>
			<path fill="none" stroke="#B72345" stroke-width="3" stroke-miterlimit="10" d="M168.537,15.563
				c-0.184-0.128-0.376-0.243-0.567-0.359c-1.549-0.932-3.356-1.477-5.296-1.477c-5.689,0-10.302,4.613-10.302,10.303
				c0,1.487,0.321,2.897,0.888,4.174c0.091,0.206,0.188,0.409,0.292,0.608c1.1,2.095,2.895,3.765,5.083,4.699
				c2.316-1.53,4.884-3.491,7.483-5.779c2.5-2.201,4.698-4.412,6.476-6.451C171.944,18.93,170.49,16.918,168.537,15.563z"/>
			<path fill="#FFFFFF" d="M168.537,15.563c-0.184-0.128-0.376-0.243-0.567-0.359c-1.549-0.932-3.356-1.477-5.296-1.477
				c-5.689,0-10.302,4.613-10.302,10.303c0,1.487,0.321,2.897,0.888,4.174c0.091,0.206,0.188,0.409,0.292,0.608
				c1.1,2.095,2.895,3.765,5.083,4.699c2.316-1.53,4.884-3.491,7.483-5.779c2.5-2.201,4.698-4.412,6.476-6.451
				C171.944,18.93,170.49,16.918,168.537,15.563z"/>
		</g>
		<polygon fill="#B72345" points="126.295,18.459 127.663,13.726 144.325,13.726 142.957,18.459 		"/>
		<g>
			<path fill="#B72345" d="M138.002,37.741c-0.205,0.382-0.595,0.633-1.034,0.633h-16.145c-0.372,0-0.722-0.175-0.945-0.472
				c-0.098-0.131-0.155-0.283-0.193-0.438c-0.126,0.518-0.571,0.91-1.128,0.91h-5.066c-0.654,0-1.183-0.53-1.183-1.183V35.28
				l-1.572,2.535c-0.216,0.348-0.596,0.559-1.005,0.559h-8.428c-0.43,0-0.825-0.233-1.034-0.608c-0.209-0.376-0.198-0.835,0.03-1.2
				L110.7,19.852l-1.799-1.179l-2.936,2.742c-0.305,4.189-3.736,7.525-7.971,7.66c-0.084,0.02-0.172,0.031-0.263,0.032l2.18,7.539
				c0.084,0.163,0.133,0.349,0.133,0.545c0,0.652-0.528,1.18-1.18,1.182l13.383,12.499h45.793L138.002,37.741z"/>
			<polygon fill="#B72345" points="122.39,27.511 119.74,25.775 119.74,36.674 			"/>
		</g>
		<polygon fill="#B72345" points="138.742,32.693 126.956,32.693 130.387,20.825 125.555,20.825 120.823,37.191 136.968,37.191 		
			"/>
	</g>
</g>
</svg>
