<?xml version="1.0" encoding="UTF-8" standalone="no"?>
<svg
   xmlns:dc="http://purl.org/dc/elements/1.1/"
   xmlns:cc="http://creativecommons.org/ns#"
   xmlns:rdf="http://www.w3.org/1999/02/22-rdf-syntax-ns#"
   xmlns:svg="http://www.w3.org/2000/svg"
   xmlns="http://www.w3.org/2000/svg"
   viewBox="0 0 300.452 261.78534"
   height="2610.78534"
   width="3000.452"
   xml:space="preserve"
   id="svg2"
   version="1.1"><metadata
     id="metadata8"><rdf:RDF><cc:Work
         rdf:about=""><dc:format>image/svg+xml</dc:format><dc:type
           rdf:resource="http://purl.org/dc/dcmitype/StillImage" /></cc:Work></rdf:RDF></metadata><defs
     id="defs6"><clipPath
       id="clipPath20"
       clipPathUnits="userSpaceOnUse"><path
         id="path18"
         d="M 0,196.339 H 225.339 V 0 H 0 Z" /></clipPath></defs><g
     transform="matrix(1.3333333,0,0,-1.3333333,0,261.78533)"
     id="g10"><path
       id="path12"
       style="fill:#231f20;fill-opacity:1;fill-rule:nonzero;stroke:none"
       d="M 0,0 H 225.338 V 196.339 H 0 Z" /><g
       id="g14"><g
         clip-path="url(#clipPath20)"
         id="g16"><g
           transform="translate(79.8934,87.9881)"
           id="g22"><path
             id="path24"
             style="fill:#ffffff;fill-opacity:1;fill-rule:nonzero;stroke:none"
             d="M 0,0 C 1.271,-5.752 2.288,-10.738 3.491,-15.677 4.402,-19.42 5.317,-19.647 8.59,-17.275 1.354,-12.802 4.176,-5.315 3.042,1.39 1.839,0.84 0.729,0.333 0,0 m 47.462,-41.792 c 0.637,-0.118 1.273,-0.236 1.91,-0.354 4.734,4.984 5.741,10.699 1.69,15.297 -1.314,-5.453 -2.457,-10.198 -3.6,-14.943 M 1.106,-42.076 c 1.869,2.125 4.29,3.874 4.008,4.773 -0.541,1.721 -2.844,4.311 -4.011,4.116 -2.436,-0.406 -4.608,-2.39 -6.889,-3.726 2.026,-1.517 4.052,-3.035 6.892,-5.163 m 39.039,29.194 0.864,1.012 c -0.821,2.461 -1.687,4.908 -2.446,7.388 -0.482,1.574 -0.375,3.543 -1.311,4.706 -1.085,1.348 -2.956,2.595 -4.616,2.792 -1.488,0.176 -3.152,-1.133 -4.739,-1.786 0.745,-1.565 1.117,-3.557 2.316,-4.599 2.011,-1.747 4.548,-2.89 6.863,-4.287 -0.198,-0.075 -0.396,-0.151 -0.595,-0.226 1.222,-1.667 2.443,-3.333 3.664,-5 m -6.081,-37.097 c -5.589,8.286 -13.691,11.106 -19.866,7.025 5.575,-5.02 11.907,-6.86 19.866,-7.025 m -73.579,39.562 c 5.439,-4.416 10.896,-8.906 16.435,-13.293 1.056,-0.836 2.435,-1.264 3.666,-1.88 0.215,1.655 1.012,3.497 0.55,4.934 -2.624,8.174 -11.6,12.372 -20.651,10.239 m 60.531,31.789 c -0.055,2.683 -1.749,4.591 -4.888,4.493 -2.979,-0.093 -5.579,-1.143 -5.512,-4.991 0.057,-3.302 0.455,-6.73 -0.276,-9.876 -0.755,-3.247 -0.04,-4.563 3.074,-5.332 3.19,-0.788 4.779,0.407 5.35,3.403 0.746,3.918 1.439,7.846 2.252,12.303 m -8.397,-38 c 0.233,-0.297 0.465,-0.594 0.697,-0.891 1.016,0.603 2.865,1.146 2.914,1.82 0.391,5.324 1.018,10.742 0.381,15.987 -0.404,3.322 -8.05,4.305 -8.813,1.271 -1.044,-4.148 -0.15,-8.88 0.565,-13.256 0.091,-0.553 4.123,-0.461 6.535,-0.687 -0.572,-1.066 -1.425,-2.655 -2.279,-4.244 m 84.977,-37.318 c 1.233,0.395 3.361,0.866 5.306,1.743 4.552,2.055 4.923,4.383 1.24,7.682 -1.848,1.656 -3.737,3.53 -5.961,4.433 -2.756,1.118 -5.879,1.332 -8.843,1.936 -0.043,-2.7 -0.264,-5.411 -0.087,-8.097 0.301,-4.582 2.64,-7.413 8.345,-7.697 m 14.385,-14.811 c 3.328,1.552 5.582,2.603 7.835,3.653 -1.263,2.309 -2.236,4.849 -3.847,6.882 -4.253,5.367 -9.826,4.496 -15.445,2.708 -3.728,-1.187 -4.648,-3.702 -1.502,-6.072 3.929,-2.958 8.655,-4.857 12.959,-7.171 m -97.998,51.132 c -2.21,-1.136 -3.192,-1.527 -4.051,-2.102 -6.07,-4.059 -9.457,-2.416 -10.119,4.999 -0.206,2.31 0.184,4.757 -0.459,6.915 -0.486,1.634 -1.928,3.638 -3.403,4.144 -1.589,0.545 -4.115,0.052 -5.446,-0.991 -0.772,-0.605 -0.456,-3.382 0.168,-4.839 2,-4.668 3.553,-9.249 1.897,-14.409 -0.278,-0.869 0.307,-2.874 0.831,-3.005 3.921,-0.982 8.344,-3.033 11.796,-2.008 4.059,1.205 6.936,5.431 8.786,11.296 M 49.668,6.41 c 3.793,-0.757 7.127,-1.548 10.506,-2.014 0.92,-0.127 2.452,0.441 2.886,1.174 2.268,3.836 4.516,7.722 6.289,11.8 1.278,2.942 2.829,6.523 -0.93,8.884 C 65.543,28.061 57.126,26.518 56.068,23.972 53.681,18.225 51.772,12.278 49.668,6.41 M 37.292,26.007 c -6.948,0.06 -8.798,-1.373 -9.74,-8.965 -0.448,-3.617 0.22,-7.373 0.382,-11.065 4.015,0.709 8.185,0.961 12.002,2.254 3.972,1.344 7.269,8.495 6.284,12.562 -1.136,4.686 -4.847,5.361 -8.928,5.214 m 41.692,-55.621 c -3.367,0.487 -5.651,1.153 -7.898,1.048 -2.28,-0.107 -4.523,-1.388 -6.783,-1.39 -2.065,-0.001 -5.019,0.424 -5.925,1.773 -0.776,1.157 0.228,4.336 1.424,5.843 4.719,5.945 5.552,14.801 1.536,21.332 -1.933,3.143 -7.184,4.959 -10.583,3.615 -2.68,-1.059 -3.288,-3.307 -1.439,-5.089 3.641,-3.511 2.698,-7.773 3.224,-11.994 0.618,-4.966 1.7,-10.147 3.902,-14.577 3.126,-6.289 16.384,-7.108 22.542,-0.561 M 3.357,12.067 c -0.633,2.721 -0.87,5.631 -2.047,8.09 -0.716,1.497 -2.797,3.083 -4.416,3.263 -4.249,0.471 -8.583,0.132 -12.88,0.23 -4.356,0.1 -6.296,-2.211 -5.605,-6.22 0.585,-3.393 1.674,-6.788 3.101,-9.928 2.787,-6.138 7.169,-8.488 12.667,-7.343 5.178,1.078 8.467,5.534 9.18,11.908 m 63.365,-70.938 c 4.201,1.329 8.904,2.455 13.281,4.341 2.47,1.064 6.252,3.421 6.211,5.118 -0.101,4.222 -1.862,8.473 -3.42,12.535 -0.329,0.858 -2.671,1.433 -4.023,1.327 -5.754,-0.453 -11.513,-1.031 -17.216,-1.912 -4.997,-0.772 -9.596,-5.486 -9.902,-9.941 -0.376,-5.475 3.326,-8.012 7.74,-9.688 2.135,-0.811 4.466,-1.105 7.329,-1.78 m -32.845,46.436 c -1.474,-0.275 -1.961,-0.437 -2.452,-0.448 -9.531,-0.231 -14.759,-6.857 -19.594,-13.655 -1.761,-2.476 -2.23,-5.87 -3.288,-8.846 2.987,-1.017 5.936,-2.731 8.97,-2.897 5.359,-0.294 10.17,-1.449 14.211,-5.047 1.732,-1.542 3.137,-3.487 4.984,-4.852 3.614,-2.67 8.782,-0.621 8.374,3.571 -0.626,6.444 1.247,12.067 3.481,17.849 1.497,3.871 0.793,8.092 -2.911,10.158 -3.832,2.139 -8.367,3.016 -11.775,4.167 m 27.824,-15.51 c 1.807,0.296 3.668,0.412 5.413,0.922 5.585,1.632 10.442,0.775 14.74,-3.397 1.366,-1.327 3.313,-2.67 5.104,-2.838 7.085,-0.665 12.634,-4.19 17.42,-8.959 3.951,-3.937 7.669,-4.813 12.049,-0.94 0.516,0.457 1.42,0.473 3.603,1.138 -2.677,-3.21 -5.329,-5.104 -5.915,-7.502 -0.466,-1.905 1.596,-4.428 2.536,-6.676 0.473,0.208 0.945,0.415 1.418,0.622 0.391,1.863 0.783,3.726 1.274,6.064 2.907,-5.893 5.532,-11.217 8.682,-17.604 -2.63,1.486 -4.124,2.329 -6.354,3.589 1.048,-7.091 -3.363,-7.037 -7.742,-6.879 -6.845,0.247 -12.617,3.264 -17.326,7.907 -5.814,5.735 -11.888,7.927 -19.81,4.498 -9.901,-4.287 -19.067,-3.125 -27.192,4.604 -2.846,2.708 -6.475,3.182 -10.281,0.446 0.505,-0.755 0.785,-1.698 1.382,-1.988 10.124,-4.913 19.941,-10.95 31.981,-9.23 1.815,0.259 3.659,0.385 5.439,0.794 11.797,2.712 18.867,-4.427 25.8,-11.881 -0.266,-0.417 -0.531,-0.834 -0.797,-1.25 -1.811,1.397 -3.949,2.523 -5.376,4.239 -5.562,6.686 -12.458,8.186 -20.67,6.36 -15.172,-3.374 -27.98,2.651 -40.351,10.446 -2.583,1.628 -5.553,2.918 -8.52,3.605 -5.906,1.368 -11.533,2.878 -16.185,7.225 -1.435,1.34 -4.26,1.867 -6.363,1.699 -8.436,-0.675 -14.605,2.009 -20.458,8.672 -6.042,6.878 -13.824,12.459 -21.523,17.587 -7.719,5.141 -11.607,4.163 -18.865,-1.948 -1.682,-1.416 -3.584,-2.571 -6.191,-4.418 0.644,4.28 7.504,5.829 2.744,9.623 4.448,1.62 8.958,3.162 13.392,4.897 9.216,3.606 17.694,0.983 24.818,-4.499 2.854,-2.196 3.518,-7.59 4.581,-11.684 1.699,-6.546 4.94,-8.773 11.558,-6.437 -0.769,0.368 -1.18,0.612 -1.622,0.769 -7.539,2.683 -10.397,6.296 -8.448,13.652 1.916,7.231 -0.88,12.289 -4.294,18.092 -3.021,5.135 -4.645,11.192 -6.282,17.012 -1.328,4.723 1.827,7.462 6.022,7.997 5.576,0.712 11.265,0.713 16.905,0.701 3.591,-0.007 6.094,-2.11 6.455,-5.723 0.565,-5.649 0.701,-11.34 1.018,-17 2.51,3.909 3.037,8.55 2.116,13.471 -1.814,9.699 -1.836,9.695 8.042,10.307 9.747,0.604 10.309,0.192 7.862,-9.197 -2.24,-8.592 -3.719,-16.884 1.174,-25.142 0.563,-0.949 -0.472,-3.278 -1.367,-4.54 -0.93,-1.312 -2.591,-2.107 -3.501,-3.678 3.58,1.41 7.16,2.819 11.059,4.355 -0.722,0.896 -1.42,1.734 -2.087,2.596 -4.264,5.511 -6.646,11.479 -4.804,18.603 0.623,2.411 0.619,5 1.375,7.357 1.01,3.149 1.75,8.006 3.897,8.851 5.351,2.108 11.754,2.634 16.782,-0.99 1.939,-1.397 2.876,-5.493 2.693,-8.255 -0.372,-5.643 -2.559,-8.012 -10.275,-14.238 2.306,-5.327 4.647,-10.732 7.244,-16.731 1.81,-0.181 2.901,0.609 2.205,3.289 -0.493,1.9 -1.532,3.679 -2.465,5.439 -1.88,3.55 -1.477,6.77 0.216,10.438 2.623,5.683 4.823,11.614 6.588,17.621 0.942,3.205 2.271,5.04 5.607,5.21 4.486,0.228 8.971,0.496 13.46,0.661 2.784,0.102 4.262,-1.365 3.375,-4.058 -1.601,-4.856 -2.972,-9.932 -5.493,-14.309 -3.659,-6.353 -4.937,-12.591 -2.471,-19.549 0.552,-1.56 0.749,-3.243 1.141,-4.861 1.244,-5.128 1.066,-9.651 -4.797,-11.958 -0.687,-0.27 -1.189,-1.012 -1.776,-1.535 0.144,-0.488 0.287,-0.976 0.431,-1.464" /></g><g
           transform="translate(77.5331,147.2411)"
           id="g26"><path
             id="path28"
             style="fill:#ffffff;fill-opacity:1;fill-rule:nonzero;stroke:none"
             d="m 0,0 c -0.546,0.005 -1.092,0.011 -1.639,0.017 -0.615,-5.79 -1.568,-11.577 -0.373,-17.384 0.671,-0.006 1.342,-0.012 2.012,-0.018 z m 0.723,-29.37 c -0.101,1.836 -0.048,3.7 -0.367,5.498 -0.167,0.941 -0.986,1.767 -1.511,2.645 -0.566,-0.83 -1.469,-1.602 -1.622,-2.502 -0.268,-1.573 -0.075,-3.225 -0.075,-4.746 -2.403,-0.475 -4.34,-0.858 -7.574,-1.497 v 23.143 c -0.606,-0.008 -1.211,-0.016 -1.816,-0.025 v -22.479 c -1.517,-0.247 -2.59,-0.346 -3.624,-0.604 -2.381,-0.592 -4.743,-1.261 -7.113,-1.898 -0.47,2.301 -1.361,4.608 -1.331,6.903 0.102,7.647 0.437,15.297 0.934,22.929 0.089,1.369 1.373,2.661 2.105,3.989 0.419,-0.234 0.838,-0.467 1.258,-0.701 v -29.481 c 0.39,-0.117 0.781,-0.236 1.171,-0.353 0.45,1.622 1.242,3.235 1.289,4.869 0.172,5.989 0.089,11.985 0.116,17.977 0.02,4.513 0.03,4.513 5.157,7.218 0.843,-2.271 1.658,-4.467 2.473,-6.662 0.267,-0.021 0.535,-0.043 0.802,-0.064 V 2.15 c 0.592,0.021 1.184,0.041 1.776,0.061 v -17.28 l 2.323,-0.05 c 0,4.93 -0.16,9.868 0.101,14.783 0.075,1.403 1.59,3.982 2.07,3.897 C -0.533,3.173 3.353,2.079 3.377,1.154 3.643,-9.027 3.3,-19.225 3.123,-29.417 c -0.8,0.015 -1.6,0.031 -2.4,0.047" /></g><g
           transform="translate(140.7826,151.6927)"
           id="g30"><path
             id="path32"
             style="fill:#ffffff;fill-opacity:1;fill-rule:nonzero;stroke:none"
             d="m 0,0 c 0.059,-0.006 0.118,-0.012 0.177,-0.019 0,-3.165 -0.011,-6.33 0.003,-9.495 0.016,-3.77 0.622,-7.245 5.41,-7.395 4.78,-0.149 5.836,3.491 5.945,7.065 0.234,7.649 0.082,15.314 -0.089,22.969 -0.067,3.009 -1.028,5.602 -4.778,5.856 C 2.984,19.23 1.437,16.911 1.046,13.915 0.445,9.31 0.324,4.642 0,0 m 11.855,-31.055 c -0.205,2.34 -0.566,4.679 -0.583,7.02 -0.035,4.948 -3.273,4.721 -6.831,4.778 -4.174,0.067 -3.837,-2.467 -3.882,-5.282 -0.038,-2.421 -0.57,-4.835 -0.884,-7.252 -0.593,0.008 -1.187,0.017 -1.78,0.026 -0.212,1.131 -0.608,2.263 -0.606,3.394 0.023,14.309 0.1,28.619 0.171,42.929 0.026,5.187 2.277,7.423 7.589,7.582 8.472,0.252 9.533,-0.322 9.642,-6.789 0.23,-13.639 0.226,-27.282 0.208,-40.923 -0.002,-1.835 -0.639,-3.669 -0.982,-5.504 -0.687,0.008 -1.374,0.014 -2.062,0.021" /></g><g
           transform="translate(112.0755,122.1009)"
           id="g34"><path
             id="path36"
             style="fill:#ffffff;fill-opacity:1;fill-rule:nonzero;stroke:none"
             d="M 0,0 2.086,-0.372 C 3.234,1.419 5.31,3.174 5.38,5.007 5.854,17.395 6.022,29.799 6.006,42.197 6.001,45.177 3.334,45.84 1.378,44.266 -0.186,43.009 -1.615,40.578 -1.672,38.625 -1.936,29.694 -1.848,20.743 -1.563,11.809 -1.437,7.86 -0.544,3.935 0,0 m -4.984,20.948 c 0,6.648 -0.172,13.302 0.055,19.941 0.173,5.034 6.885,8.745 11.404,6.43 C 7.321,46.885 8.252,45.561 8.238,44.661 8.011,30.142 7.84,15.615 7.198,1.111 6.934,-4.851 1.818,-3.692 -2,-3.649 c -4.108,0.047 -3.968,3.386 -4.02,6.178 -0.113,6.138 -0.035,12.28 -0.035,18.42 0.357,0 0.714,0 1.071,-0.001" /></g><g
           transform="translate(123.9632,129.1122)"
           id="g38"><path
             id="path40"
             style="fill:#ffffff;fill-opacity:1;fill-rule:nonzero;stroke:none"
             d="m 0,0 c 0.279,-1.556 0.349,-3.191 0.899,-4.644 0.467,-1.231 1.409,-3.072 2.286,-3.158 1.103,-0.107 3.029,1.055 3.402,2.098 0.795,2.225 1.607,4.961 0.983,7.063 -1.117,3.759 -2.609,7.811 -5.15,10.666 -7.462,8.381 -3.984,17.972 -3.723,27.162 0.076,2.671 7.133,4.163 10.558,2.569 3.118,-1.45 3.407,-3.684 0.85,-8.695 -0.648,0.84 -1.201,1.5 -1.69,2.203 C 7.583,36.461 6.791,37.687 5.981,38.901 4.522,37.79 2.1,36.909 1.771,35.528 0.264,29.215 -0.787,22.774 3.356,16.834 5.256,14.111 7.42,11.438 8.641,8.409 10.154,4.655 11.098,0.603 11.749,-3.408 12.243,-6.45 11.756,-9.827 7.744,-10.174 4.477,-10.456 0.004,-11.119 -1.828,-9.387 -3.45,-7.853 -2.168,-3.249 -2.168,0 -1.445,0 -0.723,0 0,0" /></g><g
           transform="translate(103.3617,162.4588)"
           id="g42"><path
             id="path44"
             style="fill:#ffffff;fill-opacity:1;fill-rule:nonzero;stroke:none"
             d="m 0,0 c -5.416,3.292 -8.838,1.587 -9.019,-4.825 -0.309,-10.972 -0.255,-21.955 -0.176,-32.933 0.008,-1.235 1.296,-3.558 1.769,-3.503 2.024,0.24 3.966,1.182 6.278,1.987 2.253,-2.402 1.94,-4.208 -1.587,-5.191 -7.07,-1.97 -10.403,0.386 -10.307,7.536 0.159,11.803 0.414,23.605 0.741,35.404 0.165,5.938 5.483,9.307 11.114,7.15 C 2.051,4.385 2.153,2.433 0,0" /></g></g></g></g></svg>